<?xml version="1.0" encoding="utf-8"?>
<!-- Generator: Adobe Illustrator 23.0.2, SVG Export Plug-In . SVG Version: 6.00 Build 0)  -->
<svg version="1.1" id="Capa_1" xmlns="http://www.w3.org/2000/svg" xmlns:xlink="http://www.w3.org/1999/xlink" x="0px" y="0px"
	 viewBox="0 0 695.44 354.39" style="enable-background:new 0 0 695.44 354.39;" xml:space="preserve">
<style type="text/css">
	.st0{fill:#868686;}
	.st1{fill:url(#SVGID_1_);}
	.st2{fill:url(#SVGID_2_);}
	.st3{fill:url(#SVGID_3_);}
	.st4{fill:url(#SVGID_4_);}
	.st5{fill:url(#SVGID_5_);}
	.st6{fill:url(#SVGID_6_);}
	.st7{fill:url(#SVGID_7_);}
	.st8{fill:url(#SVGID_8_);}
	.st9{fill:url(#SVGID_9_);}
	.st10{fill:url(#SVGID_10_);}
	.st11{fill:url(#SVGID_11_);}
	.st12{fill:url(#SVGID_12_);}
	.st13{fill:url(#SVGID_13_);}
	.st14{fill:none;}
	.st15{fill:url(#SVGID_14_);}
	.st16{fill:url(#SVGID_15_);}
	.st17{fill:url(#SVGID_16_);}
	.st18{fill:url(#SVGID_17_);}
	.st19{fill:url(#SVGID_18_);}
	.st20{fill:url(#SVGID_19_);}
	.st21{fill:url(#SVGID_20_);}
	.st22{fill:url(#SVGID_21_);}
	.st23{fill:url(#SVGID_22_);}
	.st24{fill:url(#SVGID_23_);}
	.st25{fill:url(#SVGID_24_);}
	.st26{fill:url(#SVGID_25_);}
	.st27{fill:url(#SVGID_26_);}
	.st28{fill:url(#SVGID_27_);}
	.st29{fill:url(#SVGID_28_);}
	.st30{fill:url(#SVGID_29_);}
	.st31{fill:url(#SVGID_30_);}
	.st32{fill:url(#SVGID_31_);}
	.st33{fill:url(#SVGID_32_);}
	.st34{fill:url(#SVGID_33_);}
	.st35{fill:url(#SVGID_34_);}
	.st36{fill:url(#SVGID_35_);}
	.st37{fill:url(#SVGID_36_);}
	.st38{fill:url(#SVGID_37_);}
	.st39{fill:#B11917;}
	.st40{fill:#4B1C13;}
</style>
<g>
	<g>
		<path class="st0" d="M519.07,267.65l15.5,36.89l11.04-26.1c0.31-0.56,0.87-0.93,1.43-0.93c0.68,0,1.24,0.37,1.55,0.93l10.97,26.1
			l15.5-36.89c0.37-0.74,1.18-1.12,2.05-0.74c0.74,0.31,1.12,1.24,0.74,1.98l-16.86,40.05c-0.25,0.56-0.81,0.93-1.24,0.99h-0.12
			h-0.19c-0.25,0-0.5-0.06-0.74-0.25c-0.06-0.06-0.19-0.12-0.25-0.25c-0.06-0.06-0.19-0.25-0.25-0.37c0-0.06,0-0.12-0.06-0.19
			l-11.04-26.22l-11.1,26.22c0,0.12-0.06,0.25-0.12,0.31c-0.06,0.19-0.19,0.31-0.31,0.43c-0.06,0-0.12,0.06-0.12,0.06
			c-0.25,0.19-0.56,0.25-0.87,0.25c-0.37,0-0.68-0.12-0.93-0.31l-0.12-0.12l-0.06-0.06c-0.19-0.19-0.31-0.43-0.37-0.74l-16.74-39.8
			c-0.37-0.74,0-1.67,0.74-1.98C517.83,266.53,518.76,266.91,519.07,267.65z"/>
		<path class="st0" d="M607.48,281.04v27.4c0,0.81-0.68,1.49-1.49,1.49c-0.81,0-1.49-0.68-1.49-1.49v-4.53
			c-2.6,3.6-6.76,6.01-11.41,6.01c-8,0-14.38-6.88-14.38-15.19c0-8.31,6.39-15.19,14.38-15.19c4.65,0,8.8,2.36,11.41,5.95v-4.46
			c0-0.87,0.68-1.49,1.49-1.49C606.8,279.55,607.48,280.17,607.48,281.04z M604.5,294.74c0-6.82-5.15-12.28-11.41-12.28
			c-6.2,0-11.41,5.46-11.41,12.28c0,6.82,5.21,12.21,11.41,12.21C599.36,306.96,604.5,301.56,604.5,294.74z"/>
		<path class="st0" d="M619.75,280.98c0-0.81,0.68-1.43,1.43-1.43c0.87,0,1.55,0.62,1.55,1.43v16.49c0,5.21,4.15,9.36,9.3,9.36
			c5.21,0,9.36-4.15,9.42-9.36v-16.49c0-0.25,0.06-0.56,0.25-0.74c0-0.06,0.06-0.12,0.06-0.19c0.06,0,0.06-0.06,0.12-0.06
			c0.12-0.19,0.37-0.31,0.56-0.37h0.12c0.06,0,0.12-0.06,0.19-0.06h0.19h0.19c0.25,0.06,0.5,0.19,0.74,0.31
			c0.12,0.12,0.31,0.31,0.37,0.5c0.12,0.19,0.19,0.43,0.19,0.62v16.49v0.56v9.49c0,7.94-6.45,14.26-14.45,14.26
			c-2.23,0-4.34-0.56-6.26-1.43c-0.68-0.43-0.99-1.3-0.62-1.98c0.37-0.74,1.18-0.93,1.92-0.74c1.49,0.74,3.22,1.18,4.96,1.18
			c6.32,0,11.41-5.02,11.47-11.28v-1.98c-2.29,2.6-5.64,4.34-9.42,4.34c-6.76-0.06-12.28-5.58-12.28-12.4V280.98z"/>
	</g>
</g>
<g>
	<linearGradient id="SVGID_1_" gradientUnits="userSpaceOnUse" x1="205.0251" y1="206.6262" x2="353.2815" y2="206.6262">
		<stop  offset="0" style="stop-color:#E5332A"/>
		<stop  offset="0.3702" style="stop-color:#EC632D"/>
		<stop  offset="1" style="stop-color:#F8B133"/>
	</linearGradient>
	<path class="st1" d="M353.28,129.02v110.39c0,12.62-1.35,23.48-4.04,32.57c-2.69,9.09-7.01,16.61-12.95,22.55
		c-5.94,5.94-13.71,10.35-23.32,13.22c-9.61,2.88-21.56,4.32-35.85,4.32c-13.09,0-24.78-1.83-35.08-5.5
		c-10.3-3.67-18.24-8.4-23.8-14.2c-5.57-5.8-8.35-11.76-8.35-17.89c0-4.64,1.58-8.42,4.73-11.35c3.15-2.92,6.96-4.39,11.41-4.39
		c5.57,0,10.44,2.46,14.62,7.38c2.04,2.51,4.15,5.03,6.33,7.59c2.18,2.55,4.59,4.73,7.24,6.54c2.64,1.81,5.82,3.15,9.54,4.04
		c3.71,0.88,7.98,1.32,12.81,1.32c9.84,0,17.47-1.37,22.9-4.11c5.43-2.74,9.23-6.57,11.41-11.48c2.18-4.92,3.46-10.19,3.83-15.8
		c0.37-5.61,0.65-14.64,0.83-27.08c-5.85,8.17-12.6,14.39-20.25,18.65c-7.66,4.27-16.78,6.4-27.35,6.4
		c-12.72,0-23.83-3.25-33.34-9.74c-9.51-6.5-16.82-15.59-21.93-27.29c-5.1-11.69-7.66-25.2-7.66-40.51c0-11.41,1.55-21.72,4.66-30.9
		c3.11-9.19,7.54-16.94,13.29-23.25c5.75-6.31,12.39-11.07,19.91-14.27c7.52-3.2,15.78-4.8,24.78-4.8c10.76,0,20.09,2.07,27.98,6.2
		c7.89,4.13,15.22,10.6,21.99,19.42v-5.15c0-6.59,1.62-11.69,4.87-15.31c3.25-3.62,7.42-5.43,12.53-5.43
		c7.33,0,12.2,2.39,14.62,7.17C352.07,113.13,353.28,120.02,353.28,129.02z M243.17,177.18c0,15.41,3.36,27.05,10.09,34.94
		c6.73,7.89,15.43,11.83,26.1,11.83c6.31,0,12.27-1.69,17.89-5.08c5.61-3.39,10.18-8.49,13.71-15.31c3.53-6.82,5.29-15.1,5.29-24.85
		c0-15.5-3.41-27.56-10.23-36.19c-6.82-8.63-15.8-12.95-26.94-12.95c-10.86,0-19.56,4.13-26.1,12.39
		C246.44,150.23,243.17,161.97,243.17,177.18z"/>
	<linearGradient id="SVGID_2_" gradientUnits="userSpaceOnUse" x1="303.9916" y1="161.715" x2="323.2642" y2="161.715">
		<stop  offset="0" style="stop-color:#FFFFFF;stop-opacity:0"/>
		<stop  offset="8.207560e-04" style="stop-color:#FFFFFF;stop-opacity:5.745292e-04"/>
		<stop  offset="1" style="stop-color:#FFFFFF;stop-opacity:0.7"/>
	</linearGradient>
	<path class="st2" d="M317.72,165.57c-1.33-29.57-7.52-39.93-13.73-53.29c0,0,0,0,0.03,0c4.25,2.26,8.29,4.93,12.06,7.9
		c15.52,47.93,2.99,79.6-10.03,90.97C309.79,207.27,318.89,191.45,317.72,165.57z"/>
	<linearGradient id="SVGID_3_" gradientUnits="userSpaceOnUse" x1="267.5334" y1="127.2901" x2="188.7113" y2="190.8956">
		<stop  offset="0" style="stop-color:#000000;stop-opacity:0.7"/>
		<stop  offset="0.1255" style="stop-color:#040404;stop-opacity:0.6122"/>
		<stop  offset="0.251" style="stop-color:#101010;stop-opacity:0.5243"/>
		<stop  offset="0.3767" style="stop-color:#242424;stop-opacity:0.4363"/>
		<stop  offset="0.5025" style="stop-color:#404040;stop-opacity:0.3483"/>
		<stop  offset="0.6284" style="stop-color:#656565;stop-opacity:0.2601"/>
		<stop  offset="0.7545" style="stop-color:#919191;stop-opacity:0.1718"/>
		<stop  offset="0.8783" style="stop-color:#C5C5C5;stop-opacity:0.0852"/>
		<stop  offset="1" style="stop-color:#FFFFFF;stop-opacity:0"/>
	</linearGradient>
	<path class="st3" d="M284.59,129.95c-8.21-1.47-53.3-1.19-79.37,53.11c-0.13-1.86-0.2-3.75-0.2-5.66c0-5.59,0.06-10.55,0.76-16.04
		C236.94,131.7,267.86,125.8,284.59,129.95z"/>
	<linearGradient id="SVGID_4_" gradientUnits="userSpaceOnUse" x1="245.4894" y1="204.7721" x2="293.6482" y2="248.0999">
		<stop  offset="0" style="stop-color:#000000;stop-opacity:0.7"/>
		<stop  offset="0.1255" style="stop-color:#040404;stop-opacity:0.6122"/>
		<stop  offset="0.251" style="stop-color:#101010;stop-opacity:0.5243"/>
		<stop  offset="0.3767" style="stop-color:#242424;stop-opacity:0.4363"/>
		<stop  offset="0.5025" style="stop-color:#404040;stop-opacity:0.3483"/>
		<stop  offset="0.6284" style="stop-color:#656565;stop-opacity:0.2601"/>
		<stop  offset="0.7545" style="stop-color:#919191;stop-opacity:0.1718"/>
		<stop  offset="0.8783" style="stop-color:#C5C5C5;stop-opacity:0.0852"/>
		<stop  offset="1" style="stop-color:#FFFFFF;stop-opacity:0"/>
	</linearGradient>
	<path class="st4" d="M298.67,243.77c-4.83,3.12-9.16,5.05-13.59,6.23c-39.35-21.99-41.1-43.38-41.1-60.63
		C245.58,206.63,262.47,234.06,298.67,243.77z"/>
</g>
<g>
	<linearGradient id="SVGID_5_" gradientUnits="userSpaceOnUse" x1="449.9645" y1="150.1775" x2="487.9681" y2="150.1775">
		<stop  offset="0" style="stop-color:#E5332A"/>
		<stop  offset="0.3702" style="stop-color:#EC632D"/>
		<stop  offset="1" style="stop-color:#F8B133"/>
	</linearGradient>
	<path class="st5" d="M449.96,232.59V67.77c0-7.61,1.69-13.36,5.08-17.26c3.39-3.9,7.96-5.85,13.71-5.85
		c5.75,0,10.39,1.93,13.92,5.78c3.53,3.85,5.29,9.63,5.29,17.33v164.82c0,7.7-1.79,13.48-5.36,17.33s-8.19,5.78-13.85,5.78
		c-5.57,0-10.09-2-13.57-5.99C451.7,245.72,449.96,240.01,449.96,232.59z"/>
	
		<linearGradient id="SVGID_6_" gradientUnits="userSpaceOnUse" x1="-1546.792" y1="224.4766" x2="-1513.7726" y2="224.4766" gradientTransform="matrix(-1 0 0 1 -1063.8108 0)">
		<stop  offset="0" style="stop-color:#FFFFFF;stop-opacity:0"/>
		<stop  offset="0.1217" style="stop-color:#C5C5C5;stop-opacity:0.0852"/>
		<stop  offset="0.2455" style="stop-color:#919191;stop-opacity:0.1718"/>
		<stop  offset="0.3716" style="stop-color:#656565;stop-opacity:0.2601"/>
		<stop  offset="0.4975" style="stop-color:#404040;stop-opacity:0.3483"/>
		<stop  offset="0.6233" style="stop-color:#242424;stop-opacity:0.4363"/>
		<stop  offset="0.749" style="stop-color:#101010;stop-opacity:0.5243"/>
		<stop  offset="0.8745" style="stop-color:#040404;stop-opacity:0.6122"/>
		<stop  offset="1" style="stop-color:#000000;stop-opacity:0.7"/>
	</linearGradient>
	<path class="st6" d="M482.75,249.71c-3.48,3.99-8.5,5.99-13.57,5.99c-5.57,0-10-1.67-13.62-5.57c-3.62-3.9-5.6-9.93-5.6-17.54
		v-39.33C449.96,271.01,486.23,245.72,482.75,249.71z"/>
	
		<linearGradient id="SVGID_7_" gradientUnits="userSpaceOnUse" x1="407.3367" y1="1625.3363" x2="440.4946" y2="1625.3363" gradientTransform="matrix(1 0 0 -1 47.4735 1701.2146)">
		<stop  offset="0" style="stop-color:#FFFFFF;stop-opacity:0"/>
		<stop  offset="8.207560e-04" style="stop-color:#FFFFFF;stop-opacity:5.745292e-04"/>
		<stop  offset="1" style="stop-color:#FFFFFF;stop-opacity:0.7"/>
	</linearGradient>
	<path class="st7" d="M455.04,50.5c3.48-3.99,8.14-5.85,13.71-5.85c5.57,0,10.3,1.88,13.92,5.78c3.62,3.9,5.29,9.72,5.29,17.33
		v39.33C487.97,29.34,451.56,54.49,455.04,50.5z"/>
</g>
<g>
	<linearGradient id="SVGID_8_" gradientUnits="userSpaceOnUse" x1="508.1235" y1="178.2977" x2="652.622" y2="178.2977">
		<stop  offset="0" style="stop-color:#E5332A"/>
		<stop  offset="0.3702" style="stop-color:#EC632D"/>
		<stop  offset="1" style="stop-color:#F8B133"/>
	</linearGradient>
	<path class="st8" d="M621.3,187.76h-74.34c0.09,8.63,1.83,16.24,5.22,22.83c3.39,6.59,7.89,11.55,13.5,14.9
		c5.61,3.34,11.81,5.01,18.59,5.01c4.55,0,8.7-0.53,12.46-1.6c3.76-1.07,7.4-2.74,10.93-5.01c3.53-2.27,6.77-4.71,9.74-7.31
		c2.97-2.6,6.82-6.13,11.55-10.58c1.95-1.67,4.73-2.51,8.35-2.51c3.9,0,7.05,1.07,9.47,3.2c2.41,2.14,3.62,5.15,3.62,9.05
		c0,3.43-1.35,7.45-4.04,12.04c-2.69,4.59-6.75,9-12.18,13.22c-5.43,4.22-12.25,7.72-20.46,10.51c-8.21,2.79-17.66,4.18-28.33,4.18
		c-24.41,0-43.39-6.96-56.94-20.88c-13.55-13.92-20.33-32.8-20.33-56.66c0-11.23,1.67-21.65,5.01-31.25
		c3.34-9.61,8.21-17.84,14.62-24.71c6.4-6.87,14.29-12.13,23.67-15.8c9.37-3.66,19.77-5.5,31.18-5.5c14.85,0,27.59,3.13,38.21,9.4
		c10.62,6.26,18.58,14.36,23.87,24.29c5.29,9.93,7.94,20.05,7.94,30.35c0,9.56-2.74,15.76-8.21,18.59
		C638.93,186.35,631.23,187.76,621.3,187.76z M546.96,166.19h68.91c-0.93-12.99-4.43-22.71-10.51-29.16
		c-6.08-6.45-14.08-9.68-24.01-9.68c-9.47,0-17.24,3.27-23.32,9.81C551.95,143.7,548.26,153.38,546.96,166.19z"/>
	<linearGradient id="SVGID_9_" gradientUnits="userSpaceOnUse" x1="570.5927" y1="124.9655" x2="491.7707" y2="188.5709">
		<stop  offset="0" style="stop-color:#000000;stop-opacity:0.7"/>
		<stop  offset="0.1255" style="stop-color:#040404;stop-opacity:0.6122"/>
		<stop  offset="0.251" style="stop-color:#101010;stop-opacity:0.5243"/>
		<stop  offset="0.3767" style="stop-color:#242424;stop-opacity:0.4363"/>
		<stop  offset="0.5025" style="stop-color:#404040;stop-opacity:0.3483"/>
		<stop  offset="0.6284" style="stop-color:#656565;stop-opacity:0.2601"/>
		<stop  offset="0.7545" style="stop-color:#919191;stop-opacity:0.1718"/>
		<stop  offset="0.8783" style="stop-color:#C5C5C5;stop-opacity:0.0852"/>
		<stop  offset="1" style="stop-color:#FFFFFF;stop-opacity:0"/>
	</linearGradient>
	<path class="st9" d="M587.69,127.68c-8.21-1.47-53.3-1.19-79.37,53.11c-0.13-1.86-0.2-3.75-0.2-5.66c0-5.59,1.28-11.7,1.98-17.18
		C541.25,128.28,570.96,123.53,587.69,127.68z"/>
	<linearGradient id="SVGID_10_" gradientUnits="userSpaceOnUse" x1="548.2534" y1="206.7338" x2="605.8011" y2="258.5087">
		<stop  offset="0" style="stop-color:#000000;stop-opacity:0.7"/>
		<stop  offset="0.1255" style="stop-color:#040404;stop-opacity:0.6122"/>
		<stop  offset="0.251" style="stop-color:#101010;stop-opacity:0.5243"/>
		<stop  offset="0.3767" style="stop-color:#242424;stop-opacity:0.4363"/>
		<stop  offset="0.5025" style="stop-color:#404040;stop-opacity:0.3483"/>
		<stop  offset="0.6284" style="stop-color:#656565;stop-opacity:0.2601"/>
		<stop  offset="0.7545" style="stop-color:#919191;stop-opacity:0.1718"/>
		<stop  offset="0.8783" style="stop-color:#C5C5C5;stop-opacity:0.0852"/>
		<stop  offset="1" style="stop-color:#FFFFFF;stop-opacity:0"/>
	</linearGradient>
	<path class="st10" d="M613.31,251.66c-6.97,2.22-12.45,3.24-22.84,3.98c-31.39-11.36-46.6-40.93-43.51-67.87
		C548.44,225.25,576.43,238.01,613.31,251.66z"/>
	<linearGradient id="SVGID_11_" gradientUnits="userSpaceOnUse" x1="582.6008" y1="133.5424" x2="616.0318" y2="133.5424">
		<stop  offset="0" style="stop-color:#FFFFFF;stop-opacity:0"/>
		<stop  offset="8.207560e-04" style="stop-color:#FFFFFF;stop-opacity:5.745292e-04"/>
		<stop  offset="1" style="stop-color:#FFFFFF;stop-opacity:0.7"/>
	</linearGradient>
	<path class="st11" d="M615.87,166.19c0,0-5.69-56.27-33.27-65.29c0,0,12.31,0.15,20.3,2.21
		C611.49,105.32,617.07,145.4,615.87,166.19z"/>
</g>
<g>
	<linearGradient id="SVGID_12_" gradientUnits="userSpaceOnUse" x1="143.2581" y1="134.7779" x2="203.5056" y2="169.1425">
		<stop  offset="0" style="stop-color:#E5332A"/>
		<stop  offset="0.3702" style="stop-color:#EC632D"/>
		<stop  offset="1" style="stop-color:#F8B133"/>
	</linearGradient>
	<path class="st12" d="M192.49,122.61v57.2c0,7.61-1.81,13.36-5.43,17.26c-3.62,3.9-8.21,5.85-13.78,5.85s-10.09-2-13.57-5.99
		c-3.48-3.99-5.22-9.7-5.22-17.12v-56.09c0-7.52,1.74-13.18,5.22-16.98c3.48-3.8,8.01-5.71,13.57-5.71s10.16,1.9,13.78,5.71
		C190.68,110.55,192.49,115.84,192.49,122.61z"/>
	<g>
		<linearGradient id="SVGID_13_" gradientUnits="userSpaceOnUse" x1="107.4202" y1="197.6083" x2="191.6261" y2="245.6385">
			<stop  offset="0" style="stop-color:#E5332A"/>
			<stop  offset="0.3702" style="stop-color:#EC632D"/>
			<stop  offset="1" style="stop-color:#F8B133"/>
		</linearGradient>
		<path class="st13" d="M160.98,253.93c3.29,3.11,7.39,4.67,12.3,4.67c5.57,0,10.16-1.95,13.78-5.85c3.62-3.9,5.43-9.65,5.43-17.26
			V219.8c-3.72,7.97-8.49,15.04-14.42,21.13C173.05,246.09,167.31,250.38,160.98,253.93z"/>
	</g>
	<g>
		<path class="st14" d="M107.01,130.26c-3.63,0.95-7,2.46-10.09,4.56c-5.64,3.84-9.99,9.5-13.05,17
			c-3.05,7.49-4.58,16.24-4.58,26.23c0,9.9,1.5,18.55,4.51,25.95c3.01,7.4,7.31,13.07,12.91,17c5.6,3.93,12.19,5.9,19.77,5.9
			c11.47,0,20.61-4.32,27.41-12.97c6.8-8.65,10.2-20.61,10.2-35.87c0-15.45-3.4-27.48-10.2-36.08
			c-5.89-7.45-13.54-11.66-22.93-12.66C118.08,129.07,113.17,129.16,107.01,130.26z"/>
		<linearGradient id="SVGID_14_" gradientUnits="userSpaceOnUse" x1="41.2702" y1="169.1437" x2="192.1068" y2="169.1437">
			<stop  offset="0" style="stop-color:#E5332A"/>
			<stop  offset="0.3702" style="stop-color:#EC632D"/>
			<stop  offset="1" style="stop-color:#F8B133"/>
		</linearGradient>
		<path class="st15" d="M41.56,170.65c0.08-1.05,0.18-2.05,0.28-3.01C41.74,168.64,41.63,169.63,41.56,170.65z"/>
		<linearGradient id="SVGID_15_" gradientUnits="userSpaceOnUse" x1="83.0522" y1="248.7446" x2="150.011" y2="107.7297">
			<stop  offset="0" style="stop-color:#E5332A"/>
			<stop  offset="0.3702" style="stop-color:#EC632D"/>
			<stop  offset="1" style="stop-color:#F8B133"/>
		</linearGradient>
		<path class="st16" d="M186.9,146.83c-3.47-9.44-8.53-17.58-15.19-24.42c-4.55-4.68-9.78-8.56-15.58-11.77
			c15.46,47.88-0.72,87.78-10.15,100.52c2.51-3.64,12.84-19.71,11.68-45.58c-1.33-29.56-7.52-46.99-13.73-60.35
			c-8.35-2.78-17.5-4.18-27.44-4.18c-11.29,0-21.6,1.83-30.94,5.48c-9.35,3.66-17.3,8.86-23.87,15.61
			c-6.57,6.75-11.61,14.9-15.13,24.42c-1.77,4.79-3.09,9.84-3.97,15.12c31.15-29.66,63.22-36.32,79.95-32.17
			c-0.42-0.07-0.96-0.14-1.57-0.19c9.39,1,17.04,5.21,22.93,12.66c6.8,8.6,10.2,20.63,10.2,36.08c0,15.26-3.4,27.22-10.2,35.87
			c-6.8,8.65-15.94,12.97-27.41,12.97c-7.59,0-14.18-1.96-19.77-5.9c-5.6-3.93-9.9-9.6-12.91-17c-3.01-7.4-4.51-16.05-4.51-25.95
			c0-9.99,1.53-18.73,4.58-26.23c3.05-7.49,7.4-13.16,13.05-17c3.1-2.11,6.47-3.61,10.09-4.56c-18.17,3.24-47.02,15.29-65.51,53.69
			c0.5,9.08,2.12,17.52,4.97,25.25c3.47,9.39,8.56,17.53,15.26,24.42c6.71,6.89,14.64,12.19,23.8,15.89
			c9.16,3.7,19.47,5.55,30.94,5.55c3.65,0,7.15-0.25,10.57-0.61C87.79,232.47,80,206.61,80,189.38
			c1.6,17.25,15.18,47.78,67.71,60.21c9.25-3.65,17.21-8.9,23.87-15.75c6.66-6.85,11.75-15.03,15.26-24.56
			c3.51-9.53,5.27-19.93,5.27-31.22C192.11,166.67,190.37,156.26,186.9,146.83z"/>
		<linearGradient id="SVGID_16_" gradientUnits="userSpaceOnUse" x1="41.2702" y1="106.1791" x2="192.1068" y2="106.1791">
			<stop  offset="0" style="stop-color:#E5332A"/>
			<stop  offset="0.3702" style="stop-color:#EC632D"/>
			<stop  offset="1" style="stop-color:#F8B133"/>
		</linearGradient>
		<path class="st17" d="M147.7,106.59c-1.21-0.48-2.43-0.92-3.67-1.34c0.47,0.17,2.46,0.9,4.82,1.86
			C148.46,106.94,148.1,106.74,147.7,106.59z"/>
		<linearGradient id="SVGID_17_" gradientUnits="userSpaceOnUse" x1="41.2702" y1="253.6485" x2="192.1068" y2="253.6485">
			<stop  offset="0" style="stop-color:#E5332A"/>
			<stop  offset="0.3702" style="stop-color:#EC632D"/>
			<stop  offset="1" style="stop-color:#F8B133"/>
		</linearGradient>
		<path class="st18" d="M133.75,253.52c-0.49,0.09-0.98,0.18-1.47,0.27C132.77,253.7,133.26,253.61,133.75,253.52z"/>
		<linearGradient id="SVGID_18_" gradientUnits="userSpaceOnUse" x1="41.2702" y1="251.9782" x2="192.1068" y2="251.9782">
			<stop  offset="0" style="stop-color:#E5332A"/>
			<stop  offset="0.3702" style="stop-color:#EC632D"/>
			<stop  offset="1" style="stop-color:#F8B133"/>
		</linearGradient>
		<path class="st19" d="M141.4,251.7c-0.67,0.19-1.37,0.38-2.08,0.56C140.01,252.08,140.71,251.9,141.4,251.7z"/>
		<linearGradient id="SVGID_19_" gradientUnits="userSpaceOnUse" x1="143.9186" y1="108.8703" x2="162.535" y2="108.8703">
			<stop  offset="0" style="stop-color:#FFFFFF;stop-opacity:0"/>
			<stop  offset="8.207560e-04" style="stop-color:#FFFFFF;stop-opacity:5.745292e-04"/>
			<stop  offset="1" style="stop-color:#FFFFFF;stop-opacity:0.7"/>
		</linearGradient>
		<path class="st20" d="M156.09,110.53c-1.93-1.16-4.78-2.42-7.25-3.42c2.53,1.05,4.95,2.24,7.28,3.53
			C156.11,110.6,156.11,110.57,156.09,110.53z"/>
		<linearGradient id="SVGID_20_" gradientUnits="userSpaceOnUse" x1="143.9187" y1="105.2302" x2="162.535" y2="105.2302">
			<stop  offset="0" style="stop-color:#FFFFFF;stop-opacity:0"/>
			<stop  offset="8.207560e-04" style="stop-color:#FFFFFF;stop-opacity:5.745292e-04"/>
			<stop  offset="1" style="stop-color:#FFFFFF;stop-opacity:0.7"/>
		</linearGradient>
		<path class="st21" d="M143.92,105.21C143.92,105.21,143.92,105.21,143.92,105.21c0.04,0.02,0.08,0.03,0.11,0.04
			C143.96,105.23,143.92,105.21,143.92,105.21z"/>
		<linearGradient id="SVGID_21_" gradientUnits="userSpaceOnUse" x1="41.2702" y1="158.1833" x2="192.1068" y2="158.1833">
			<stop  offset="0" style="stop-color:#E5332A"/>
			<stop  offset="0.3702" style="stop-color:#EC632D"/>
			<stop  offset="1" style="stop-color:#F8B133"/>
		</linearGradient>
		<path class="st22" d="M145.97,211.15c9.43-12.73,25.61-52.63,10.15-100.52c-2.33-1.29-4.75-2.47-7.28-3.53
			c-2.35-0.96-4.34-1.69-4.82-1.86c-0.04-0.01-0.07-0.02-0.11-0.03c6.21,13.36,12.4,30.79,13.73,60.35
			C158.81,191.45,148.48,207.51,145.97,211.15z"/>
		<linearGradient id="SVGID_22_" gradientUnits="userSpaceOnUse" x1="143.9218" y1="158.1833" x2="162.5335" y2="158.1833">
			<stop  offset="0" style="stop-color:#FFFFFF;stop-opacity:0"/>
			<stop  offset="8.207560e-04" style="stop-color:#FFFFFF;stop-opacity:5.745292e-04"/>
			<stop  offset="1" style="stop-color:#FFFFFF;stop-opacity:0.7"/>
		</linearGradient>
		<path class="st23" d="M145.97,211.15c9.43-12.73,25.61-52.63,10.15-100.52c-2.33-1.29-4.75-2.47-7.28-3.53
			c-2.35-0.96-4.34-1.69-4.82-1.86c-0.04-0.01-0.07-0.02-0.11-0.03C150.13,118.58,165.21,179.18,145.97,211.15z"/>
		<linearGradient id="SVGID_23_" gradientUnits="userSpaceOnUse" x1="98.7867" y1="119.0002" x2="18.0927" y2="184.1162">
			<stop  offset="0" style="stop-color:#000000;stop-opacity:0.7"/>
			<stop  offset="0.1255" style="stop-color:#040404;stop-opacity:0.6122"/>
			<stop  offset="0.251" style="stop-color:#101010;stop-opacity:0.5243"/>
			<stop  offset="0.3767" style="stop-color:#242424;stop-opacity:0.4363"/>
			<stop  offset="0.5025" style="stop-color:#404040;stop-opacity:0.3483"/>
			<stop  offset="0.6284" style="stop-color:#656565;stop-opacity:0.2601"/>
			<stop  offset="0.7545" style="stop-color:#919191;stop-opacity:0.1718"/>
			<stop  offset="0.8783" style="stop-color:#C5C5C5;stop-opacity:0.0852"/>
			<stop  offset="1" style="stop-color:#FFFFFF;stop-opacity:0"/>
		</linearGradient>
		<path class="st24" d="M42.57,161.68c-0.23,1.78-0.49,3.78-0.73,5.96C42.05,165.63,42.25,163.62,42.57,161.68
			C42.57,161.67,42.57,161.68,42.57,161.68z"/>
		<linearGradient id="SVGID_24_" gradientUnits="userSpaceOnUse" x1="104.716" y1="126.348" x2="24.022" y2="191.4641">
			<stop  offset="0" style="stop-color:#000000;stop-opacity:0.7"/>
			<stop  offset="0.1255" style="stop-color:#040404;stop-opacity:0.6122"/>
			<stop  offset="0.251" style="stop-color:#101010;stop-opacity:0.5243"/>
			<stop  offset="0.3767" style="stop-color:#242424;stop-opacity:0.4363"/>
			<stop  offset="0.5025" style="stop-color:#404040;stop-opacity:0.3483"/>
			<stop  offset="0.6284" style="stop-color:#656565;stop-opacity:0.2601"/>
			<stop  offset="0.7545" style="stop-color:#919191;stop-opacity:0.1718"/>
			<stop  offset="0.8783" style="stop-color:#C5C5C5;stop-opacity:0.0852"/>
			<stop  offset="1" style="stop-color:#FFFFFF;stop-opacity:0"/>
		</linearGradient>
		<path class="st25" d="M41.56,170.65c-0.32,3.89-0.47,8.34-0.12,13.42c0.02-0.04,0.04-0.08,0.06-0.12
			c-0.11-1.95-0.23-3.89-0.23-5.9C41.27,175.53,41.39,173.08,41.56,170.65z"/>
		<linearGradient id="SVGID_25_" gradientUnits="userSpaceOnUse" x1="110.0517" y1="132.9601" x2="29.3577" y2="198.0762">
			<stop  offset="0" style="stop-color:#000000;stop-opacity:0.7"/>
			<stop  offset="0.1255" style="stop-color:#040404;stop-opacity:0.6122"/>
			<stop  offset="0.251" style="stop-color:#101010;stop-opacity:0.5243"/>
			<stop  offset="0.3767" style="stop-color:#242424;stop-opacity:0.4363"/>
			<stop  offset="0.5025" style="stop-color:#404040;stop-opacity:0.3483"/>
			<stop  offset="0.6284" style="stop-color:#656565;stop-opacity:0.2601"/>
			<stop  offset="0.7545" style="stop-color:#919191;stop-opacity:0.1718"/>
			<stop  offset="0.8783" style="stop-color:#C5C5C5;stop-opacity:0.0852"/>
			<stop  offset="1" style="stop-color:#FFFFFF;stop-opacity:0"/>
		</linearGradient>
		<path class="st26" d="M107.01,130.26c6.16-1.1,11.08-1.19,13.95-0.95c-1.45-0.15-2.94-0.25-4.48-0.25
			C113.14,129.07,109.99,129.48,107.01,130.26z"/>
		<linearGradient id="SVGID_26_" gradientUnits="userSpaceOnUse" x1="41.2702" y1="156.1654" x2="192.1068" y2="156.1654">
			<stop  offset="0" style="stop-color:#E5332A"/>
			<stop  offset="0.3702" style="stop-color:#EC632D"/>
			<stop  offset="1" style="stop-color:#F8B133"/>
		</linearGradient>
		<path class="st27" d="M107.01,130.26c2.98-0.78,6.13-1.19,9.47-1.19c1.54,0,3.03,0.09,4.48,0.25c0.61,0.05,1.15,0.11,1.57,0.19
			c-16.73-4.15-48.8,2.51-79.95,32.17c-0.32,1.94-0.53,3.95-0.73,5.96c-0.1,0.96-0.2,1.97-0.28,3.01c-0.17,2.43-0.29,4.88-0.29,7.4
			c0,2.01,0.12,3.95,0.23,5.9C59.99,145.55,88.84,133.5,107.01,130.26z"/>
		<linearGradient id="SVGID_27_" gradientUnits="userSpaceOnUse" x1="105.2133" y1="126.9642" x2="24.5192" y2="192.0802">
			<stop  offset="0" style="stop-color:#000000;stop-opacity:0.7"/>
			<stop  offset="0.1255" style="stop-color:#040404;stop-opacity:0.6122"/>
			<stop  offset="0.251" style="stop-color:#101010;stop-opacity:0.5243"/>
			<stop  offset="0.3767" style="stop-color:#242424;stop-opacity:0.4363"/>
			<stop  offset="0.5025" style="stop-color:#404040;stop-opacity:0.3483"/>
			<stop  offset="0.6284" style="stop-color:#656565;stop-opacity:0.2601"/>
			<stop  offset="0.7545" style="stop-color:#919191;stop-opacity:0.1718"/>
			<stop  offset="0.8783" style="stop-color:#C5C5C5;stop-opacity:0.0852"/>
			<stop  offset="1" style="stop-color:#FFFFFF;stop-opacity:0"/>
		</linearGradient>
		<path class="st28" d="M107.01,130.26c2.98-0.78,6.13-1.19,9.47-1.19c1.54,0,3.03,0.09,4.48,0.25c0.61,0.05,1.15,0.11,1.57,0.19
			c-16.73-4.15-48.8,2.51-79.95,32.17c-0.32,1.94-0.53,3.95-0.73,5.96c-0.1,0.96-0.2,1.97-0.28,3.01c-0.17,2.43-0.29,4.88-0.29,7.4
			c0,2.01,0.12,3.95,0.23,5.9C59.99,145.55,88.84,133.5,107.01,130.26z"/>
		<linearGradient id="SVGID_28_" gradientUnits="userSpaceOnUse" x1="88.3977" y1="200.1209" x2="145.0369" y2="251.0784">
			<stop  offset="0" style="stop-color:#000000;stop-opacity:0.7"/>
			<stop  offset="0.1255" style="stop-color:#040404;stop-opacity:0.6122"/>
			<stop  offset="0.251" style="stop-color:#101010;stop-opacity:0.5243"/>
			<stop  offset="0.3767" style="stop-color:#242424;stop-opacity:0.4363"/>
			<stop  offset="0.5025" style="stop-color:#404040;stop-opacity:0.3483"/>
			<stop  offset="0.6284" style="stop-color:#656565;stop-opacity:0.2601"/>
			<stop  offset="0.7545" style="stop-color:#919191;stop-opacity:0.1718"/>
			<stop  offset="0.8783" style="stop-color:#C5C5C5;stop-opacity:0.0852"/>
			<stop  offset="1" style="stop-color:#FFFFFF;stop-opacity:0"/>
		</linearGradient>
		<path class="st29" d="M147.7,249.58c-2.04,0.8-4.16,1.48-6.31,2.11C143.95,250.97,146.13,250.22,147.7,249.58z"/>
		<linearGradient id="SVGID_29_" gradientUnits="userSpaceOnUse" x1="80.0104" y1="209.4433" x2="136.6496" y2="260.4008">
			<stop  offset="0" style="stop-color:#000000;stop-opacity:0.7"/>
			<stop  offset="0.1255" style="stop-color:#040404;stop-opacity:0.6122"/>
			<stop  offset="0.251" style="stop-color:#101010;stop-opacity:0.5243"/>
			<stop  offset="0.3767" style="stop-color:#242424;stop-opacity:0.4363"/>
			<stop  offset="0.5025" style="stop-color:#404040;stop-opacity:0.3483"/>
			<stop  offset="0.6284" style="stop-color:#656565;stop-opacity:0.2601"/>
			<stop  offset="0.7545" style="stop-color:#919191;stop-opacity:0.1718"/>
			<stop  offset="0.8783" style="stop-color:#C5C5C5;stop-opacity:0.0852"/>
			<stop  offset="1" style="stop-color:#FFFFFF;stop-opacity:0"/>
		</linearGradient>
		<path class="st30" d="M127.15,254.51c1.72-0.18,3.44-0.43,5.13-0.73c-1.7,0.29-3.47,0.48-5.23,0.67
			C127.08,254.47,127.12,254.49,127.15,254.51z"/>
		<linearGradient id="SVGID_30_" gradientUnits="userSpaceOnUse" x1="83.6939" y1="205.3492" x2="140.333" y2="256.3067">
			<stop  offset="0" style="stop-color:#000000;stop-opacity:0.7"/>
			<stop  offset="0.1255" style="stop-color:#040404;stop-opacity:0.6122"/>
			<stop  offset="0.251" style="stop-color:#101010;stop-opacity:0.5243"/>
			<stop  offset="0.3767" style="stop-color:#242424;stop-opacity:0.4363"/>
			<stop  offset="0.5025" style="stop-color:#404040;stop-opacity:0.3483"/>
			<stop  offset="0.6284" style="stop-color:#656565;stop-opacity:0.2601"/>
			<stop  offset="0.7545" style="stop-color:#919191;stop-opacity:0.1718"/>
			<stop  offset="0.8783" style="stop-color:#C5C5C5;stop-opacity:0.0852"/>
			<stop  offset="1" style="stop-color:#FFFFFF;stop-opacity:0"/>
		</linearGradient>
		<path class="st31" d="M139.32,252.26c-1.82,0.48-3.67,0.9-5.56,1.26C135.69,253.14,137.56,252.71,139.32,252.26z"/>
		<linearGradient id="SVGID_31_" gradientUnits="userSpaceOnUse" x1="41.2702" y1="221.9138" x2="192.1068" y2="221.9138">
			<stop  offset="0" style="stop-color:#E5332A"/>
			<stop  offset="0.3702" style="stop-color:#EC632D"/>
			<stop  offset="1" style="stop-color:#F8B133"/>
		</linearGradient>
		<path class="st32" d="M80,189.38c0,17.23,7.79,43.1,47.05,65.08c1.77-0.19,3.53-0.38,5.23-0.67c0.49-0.09,0.98-0.17,1.47-0.27
			c1.9-0.35,3.75-0.78,5.56-1.26c0.71-0.19,1.41-0.37,2.08-0.56c2.15-0.63,4.27-1.31,6.31-2.11C95.18,237.16,81.6,206.63,80,189.38z
			"/>
		<linearGradient id="SVGID_32_" gradientUnits="userSpaceOnUse" x1="83.5152" y1="205.6962" x2="140.1544" y2="256.6537">
			<stop  offset="0" style="stop-color:#000000;stop-opacity:0.7"/>
			<stop  offset="0.1255" style="stop-color:#040404;stop-opacity:0.6122"/>
			<stop  offset="0.251" style="stop-color:#101010;stop-opacity:0.5243"/>
			<stop  offset="0.3767" style="stop-color:#242424;stop-opacity:0.4363"/>
			<stop  offset="0.5025" style="stop-color:#404040;stop-opacity:0.3483"/>
			<stop  offset="0.6284" style="stop-color:#656565;stop-opacity:0.2601"/>
			<stop  offset="0.7545" style="stop-color:#919191;stop-opacity:0.1718"/>
			<stop  offset="0.8783" style="stop-color:#C5C5C5;stop-opacity:0.0852"/>
			<stop  offset="1" style="stop-color:#FFFFFF;stop-opacity:0"/>
		</linearGradient>
		<path class="st33" d="M80.13,189.38c0,17.23,7.79,43.1,47.05,65.08c1.77-0.19,3.53-0.38,5.23-0.67c0.49-0.09,0.98-0.17,1.47-0.27
			c1.9-0.35,3.75-0.78,5.56-1.26c0.71-0.19,1.41-0.37,2.08-0.56c2.15-0.63,4.27-1.31,6.31-2.11
			C95.31,237.16,81.73,206.63,80.13,189.38z"/>
	</g>
</g>
<g>
	<linearGradient id="SVGID_33_" gradientUnits="userSpaceOnUse" x1="380.7047" y1="151.0128" x2="418.7083" y2="151.0128">
		<stop  offset="0" style="stop-color:#E5332A"/>
		<stop  offset="0.3702" style="stop-color:#EC632D"/>
		<stop  offset="1" style="stop-color:#F8B133"/>
	</linearGradient>
	<path class="st34" d="M399.92,83.5c-5.29,0-9.82-1.62-13.57-4.87c-3.76-3.25-5.64-7.84-5.64-13.78c0-5.38,1.92-9.82,5.78-13.29
		c3.85-3.48,8.33-5.22,13.43-5.22c4.92,0,9.28,1.58,13.09,4.73c3.8,3.16,5.71,7.75,5.71,13.78c0,5.85-1.86,10.42-5.57,13.71
		C409.43,81.85,405.02,83.5,399.92,83.5z M418.71,122.75v109.83c0,7.61-1.81,13.36-5.43,17.26c-3.62,3.9-8.21,5.85-13.78,5.85
		c-5.57,0-10.09-2-13.57-5.99c-3.48-3.99-5.22-9.7-5.22-17.12V123.87c0-7.52,1.74-13.18,5.22-16.98c3.48-3.8,8.01-5.71,13.57-5.71
		c5.57,0,10.16,1.9,13.78,5.71C416.9,110.69,418.71,115.98,418.71,122.75z"/>
	
		<linearGradient id="SVGID_34_" gradientUnits="userSpaceOnUse" x1="-1477.5348" y1="224.4766" x2="-1444.5154" y2="224.4766" gradientTransform="matrix(-1 0 0 1 -1063.8108 0)">
		<stop  offset="0" style="stop-color:#FFFFFF;stop-opacity:0"/>
		<stop  offset="0.1217" style="stop-color:#C5C5C5;stop-opacity:0.0852"/>
		<stop  offset="0.2455" style="stop-color:#919191;stop-opacity:0.1718"/>
		<stop  offset="0.3716" style="stop-color:#656565;stop-opacity:0.2601"/>
		<stop  offset="0.4975" style="stop-color:#404040;stop-opacity:0.3483"/>
		<stop  offset="0.6233" style="stop-color:#242424;stop-opacity:0.4363"/>
		<stop  offset="0.749" style="stop-color:#101010;stop-opacity:0.5243"/>
		<stop  offset="0.8745" style="stop-color:#040404;stop-opacity:0.6122"/>
		<stop  offset="1" style="stop-color:#000000;stop-opacity:0.7"/>
	</linearGradient>
	<path class="st35" d="M413.49,249.71c-3.48,3.99-8.5,5.99-13.57,5.99c-5.57,0-10-1.67-13.62-5.57c-3.62-3.9-5.6-9.93-5.6-17.54
		v-39.33C380.7,271.01,416.97,245.72,413.49,249.71z"/>
	
		<linearGradient id="SVGID_35_" gradientUnits="userSpaceOnUse" x1="338.0328" y1="1568.8052" x2="371.2419" y2="1568.8052" gradientTransform="matrix(1 0 0 -1 47.4735 1701.2146)">
		<stop  offset="0" style="stop-color:#FFFFFF;stop-opacity:0"/>
		<stop  offset="8.207560e-04" style="stop-color:#FFFFFF;stop-opacity:5.745292e-04"/>
		<stop  offset="1" style="stop-color:#FFFFFF;stop-opacity:0.7"/>
	</linearGradient>
	<path class="st36" d="M385.74,107.09c3.48-3.99,8.19-5.9,13.76-5.9c5.57,0,10.23,1.87,13.84,5.76c3.62,3.9,5.51,8.84,5.37,17.35
		v39.33C418.71,85.87,382.26,111.08,385.74,107.09z"/>
	<linearGradient id="SVGID_36_" gradientUnits="userSpaceOnUse" x1="383.5087" y1="62.4413" x2="418.7083" y2="62.4413">
		<stop  offset="0" style="stop-color:#FFFFFF;stop-opacity:0"/>
		<stop  offset="8.207560e-04" style="stop-color:#FFFFFF;stop-opacity:5.745292e-04"/>
		<stop  offset="1" style="stop-color:#FFFFFF;stop-opacity:0.7"/>
	</linearGradient>
	<path class="st37" d="M383.51,54.98c0.81-1.23,1.8-2.37,2.97-3.43c3.85-3.48,8.33-5.22,13.43-5.22c4.92,0,9.28,1.58,13.09,4.73
		c3.8,3.16,5.71,7.75,5.71,13.78c0,5.85-1.86,10.42-5.57,13.71C416.85,75.26,412.62,39.87,383.51,54.98z"/>
	<linearGradient id="SVGID_37_" gradientUnits="userSpaceOnUse" x1="380.7047" y1="71.3673" x2="413.1402" y2="71.3673">
		<stop  offset="0" style="stop-color:#FFFFFF;stop-opacity:0"/>
		<stop  offset="0.1217" style="stop-color:#C5C5C5;stop-opacity:0.0852"/>
		<stop  offset="0.2455" style="stop-color:#919191;stop-opacity:0.1718"/>
		<stop  offset="0.3716" style="stop-color:#656565;stop-opacity:0.2601"/>
		<stop  offset="0.4975" style="stop-color:#404040;stop-opacity:0.3483"/>
		<stop  offset="0.6233" style="stop-color:#242424;stop-opacity:0.4363"/>
		<stop  offset="0.749" style="stop-color:#101010;stop-opacity:0.5243"/>
		<stop  offset="0.8745" style="stop-color:#040404;stop-opacity:0.6122"/>
		<stop  offset="1" style="stop-color:#000000;stop-opacity:0.7"/>
	</linearGradient>
	<path class="st38" d="M399.92,83.5c-5.29,0-9.82-1.62-13.57-4.87c-3.76-3.25-5.64-7.84-5.64-13.78c0-2,0.27-3.87,0.8-5.61
		c0.27,6.5,13.13,25.28,31.64,19.32C409.43,81.85,405.02,83.5,399.92,83.5z"/>
</g>
<g>
	<path class="st39" d="M90.45,69.57c3.25-1.29,4.48-3.06,4.49-5.26c0.03-3.84-3.31-5.57-8.8-5.61l-9.81-0.07
		c0.61,0.94,1.19,1.95,1.18,3.46l-0.05,7.61c-2.89,0.55-5.48,1.02-7.93,1.6c-2.14-6.03-4.52-12.76-4.52-12.76l-6.11-0.04
		c0.09,0.85,0.01,1.73-0.45,2.95l-6.96,18.99c0,0-0.46,1.34-1.41,2.53l5,0.04c-0.09-0.66,0.03-1.52,0.22-2.05
		c0.51-1.49,1.88-2.47,3.32-3.11c1.88-0.84,5.15-1.85,6.69-2.28l1.59,4.65c0,0,0.65,1.75,0.28,2.88l7.06,0.05
		c-1.05-1.45-1.4-2.54-1.41-2.55c-0.16-0.44-1.08-3.03-2.23-6.28c2.16-0.5,4.41-0.92,6.84-1.38l-0.05,6.77
		c-0.01,1.3-0.54,2.45-1.23,3.46l9.32,0.07c1.52,0.01,2.89-0.07,3.91-0.24c4.01-0.67,6.89-2.7,6.92-7.05
		C96.34,72.61,94.12,70.6,90.45,69.57 M58.88,74.4c-0.59,0.28-1.35,0.74-1.79,1.17c1.37-3.91,3.25-9.28,4.16-11.82l3.02,8.81
		C62.73,73,60.33,73.73,58.88,74.4z M82.96,61.74c0.96-0.05,1.31-0.04,1.94-0.04c3.01,0.02,4.4,1.28,4.39,3.07
		c-0.01,1.69-1.14,2.74-3,3.28c-0.79,0.23-2.1,0.48-3.38,0.71L82.96,61.74z M85.09,80.19l-2.26-0.02l0.06-8.18
		c0.84-0.19,2.18-0.42,3.07-0.51c2.71,0.65,4.7,1.78,4.68,4.56C90.62,79.27,88.24,80.21,85.09,80.19"/>
	<g>
		<path class="st40" d="M98.79,83.33c1.21-1.8,1.23-3.44,1.23-3.46l0.12-17.59c0-0.03,0.01-1.65-1.18-3.48l7.88,0.06
			c-1.22,1.82-1.23,3.44-1.23,3.46l-0.12,17.59c0,0.02-0.01,1.66,1.18,3.48L98.79,83.33z"/>
		<path class="st40" d="M187.13,66.67l-5.27-0.04c0.44,0.73,0.25,1.9-0.22,3.07l-3.48,9.09l-3.47-9.14
			c-0.46-1.18-0.62-2.35-0.18-3.07l-6.81-0.05c0.94,1.01,1.51,2.27,1.84,3.08l5.76,14.25l4.56,0.03c0,0,0.11-1.16,0.64-2.45
			c0,0,0,0,0,0l4.8-11.71C185.64,68.93,186.31,67.53,187.13,66.67"/>
		<path class="st40" d="M168.32,75.69c0.36-3.61-0.6-9.9-8.56-9.95c-6.51-0.05-8.93,4.47-8.96,8.89c-0.04,5.63,3,9.52,10.33,9.57
			c2.98,0.02,5.39-0.85,6.82-1.7l-1.44-3.25c-1.39,0.7-3.09,1.29-4.98,1.28c-3.27-0.02-5.28-1.19-5.69-4.44l7.09,0.05
			C165.52,76.16,167.64,76.01,168.32,75.69 M155.87,73.11c0.34-2.79,1.6-4.18,3.87-4.17c2.36,0.02,3.5,1.85,3.58,4.19
			c0,0-1.03,0.02-2.38,0.01L155.87,73.11z"/>
		<path class="st40" d="M120.16,83.48l6.99,0.05c-1.05-1.61-1.04-3.06-1.04-3.08l0.06-9.23c0.02-3.3-1.74-5.35-5.5-5.37
			c-2.4-0.02-4.38,1.05-5.84,2.35l0.01-2.03l-5.93-0.04c1.05,1.62,1.05,3.06,1.05,3.08l-0.08,11.13c0,0.02-0.01,1.47-1.09,3.06
			l6.99,0.05c-1.05-1.61-1.04-3.06-1.04-3.08l0.06-9.21c0.9-0.91,2.18-1.58,3.59-1.57c2.14,0.02,2.91,1.21,2.9,3.06l-0.05,7.77
			C121.24,80.43,121.23,81.88,120.16,83.48"/>
		<path class="st40" d="M138.33,72.03c3.45,0.02,5.32,1.72,5.3,4.44c-0.02,2.43-1.49,4.2-5.45,4.17l-2.37-0.02l0.06-8.61
			L138.33,72.03z M137.89,62.05c3.01,0.02,4.4,1.2,4.38,3.42c-0.02,2.2-1.28,3.51-4.19,3.49c-0.56,0-1.58,0-2.19-0.01l0.05-6.91
			L137.89,62.05z M138.37,83.6c1.52,0.01,2.94-0.07,3.97-0.24c3.94-0.65,6.86-2.65,6.89-6.99c0.02-3.48-2.18-5.31-5.68-6.34
			c3.14-1.17,4.2-2.87,4.22-5.09c0.03-3.84-3.08-5.82-8.71-5.86l-9.4-0.06c0.65,1,0.86,2.45,0.85,3.48l-0.12,17.59
			c-0.01,1.15-0.23,2.35-0.9,3.46L138.37,83.6z"/>
	</g>
</g>
</svg>
