<svg xmlns="http://www.w3.org/2000/svg" width="121.709" height="22.805" viewBox="0 0 121.709 22.805"><defs><style>.a{fill:#9f0111;}.b{fill:#3a140f;}</style></defs><g transform="translate(-90.329 -355.159)"><path class="a" d="M126.179,364.978c2.887-1.145,3.977-2.716,3.991-4.667.024-3.412-2.942-4.947-7.811-4.982l-8.712-.061a5.218,5.218,0,0,1,1.052,3.076l-.048,6.762c-2.569.487-4.865.909-7.039,1.419-1.9-5.357-4.018-11.328-4.018-11.328l-5.428-.038a5.387,5.387,0,0,1-.4,2.617l-6.184,16.86a8.326,8.326,0,0,1-1.251,2.25l4.444.031a4.454,4.454,0,0,1,.191-1.821,5.116,5.116,0,0,1,2.949-2.766,55.245,55.245,0,0,1,5.941-2.029l1.416,4.132a4.912,4.912,0,0,1,.251,2.559l6.267.044a8.828,8.828,0,0,1-1.251-2.267c-.141-.394-.957-2.692-1.982-5.581,1.916-.445,3.918-.82,6.075-1.224l-.042,6.009a5.57,5.57,0,0,1-1.092,3.075l8.278.058a21.607,21.607,0,0,0,3.473-.212c3.562-.591,6.121-2.4,6.149-6.261.021-2.96-1.956-4.741-5.217-5.657m-28.03,4.291A6.511,6.511,0,0,0,96.56,370.3c1.214-3.469,2.889-8.244,3.7-10.5l2.679,7.822A37.831,37.831,0,0,0,98.149,369.269Zm21.38-11.243c.857-.04,1.163-.038,1.727-.034,2.67.019,3.907,1.141,3.9,2.723-.011,1.5-1.013,2.431-2.667,2.913-.7.2-1.861.43-3,.631ZM121.42,374.4l-2.006-.014.051-7.26a27.4,27.4,0,0,1,2.73-.455c2.4.576,4.175,1.581,4.158,4.046-.02,2.874-2.136,3.7-4.933,3.684" transform="translate(0 0)"/><g transform="translate(133.588 355.412)"><path class="b" d="M243.659,377.835a6.088,6.088,0,0,0,1.091-3.072l.11-15.617a6.114,6.114,0,0,0-1.05-3.09l7,.049a6.116,6.116,0,0,0-1.093,3.075L249.6,374.8a6.087,6.087,0,0,0,1.046,3.088Z" transform="translate(-243.659 -356.056)"/><path class="b" d="M477.831,380.524l-4.683-.033a3.3,3.3,0,0,1-.192,2.724l-3.088,8.072-3.083-8.115a3.275,3.275,0,0,1-.157-2.727l-6.05-.043a9.1,9.1,0,0,1,1.634,2.737l5.115,12.651,4.046.029a8.645,8.645,0,0,1,.571-2.179v0l4.264-10.4a9.583,9.583,0,0,1,1.62-2.715" transform="translate(-399.38 -373.534)"/><path class="b" d="M422.931,386.719c.317-3.2-.528-8.788-7.6-8.837-5.777-.041-7.931,3.968-7.958,7.9-.035,5,2.667,8.452,9.178,8.5a12.01,12.01,0,0,0,6.059-1.505l-1.28-2.887a9.773,9.773,0,0,1-4.419,1.136c-2.907-.02-4.69-1.057-5.055-3.94l6.3.044a16.09,16.09,0,0,0,4.782-.4m-11.059-2.286c.3-2.476,1.423-3.716,3.436-3.7,2.092.015,3.112,1.641,3.18,3.722,0,0-.919.019-2.118.011Z" transform="translate(-361.182 -371.724)"/><path class="b" d="M285.252,393.888l6.21.044a5.4,5.4,0,0,1-.926-2.733l.058-8.2c.021-2.93-1.545-4.747-4.882-4.771a7.7,7.7,0,0,0-5.186,2.089l.013-1.807-5.266-.037a5.411,5.411,0,0,1,.93,2.733l-.07,9.887a5.388,5.388,0,0,1-.966,2.72l6.21.044a5.393,5.393,0,0,1-.927-2.734l.058-8.175a4.5,4.5,0,0,1,3.185-1.4c1.9.013,2.587,1.072,2.575,2.714l-.049,6.9a5.386,5.386,0,0,1-.966,2.72" transform="translate(-266.278 -371.975)"/><path class="b" d="M348.133,368.289c3.064.021,4.727,1.525,4.71,3.94-.015,2.161-1.324,3.732-4.836,3.707l-2.1-.015.054-7.647Zm-.387-8.861c2.67.019,3.908,1.067,3.894,3.038-.014,1.95-1.136,3.115-3.719,3.1-.5,0-1.407,0-1.944-.011l.043-6.136Zm.422,19.139a21.935,21.935,0,0,0,3.521-.213c3.5-.579,6.1-2.357,6.123-6.211.022-3.09-1.938-4.717-5.046-5.632,2.789-1.041,3.733-2.546,3.746-4.523.024-3.411-2.738-5.164-7.736-5.2l-8.348-.057a5.966,5.966,0,0,1,.759,3.087l-.11,15.618a5.9,5.9,0,0,1-.8,3.074Z" transform="translate(-313.02 -356.541)"/></g></g></svg>