<?xml version="1.0" encoding="utf-8"?>
<!-- Generator: Adobe Illustrator 23.0.2, SVG Export Plug-In . SVG Version: 6.00 Build 0)  -->
<svg version="1.1" id="Capa_1" xmlns="http://www.w3.org/2000/svg" xmlns:xlink="http://www.w3.org/1999/xlink" x="0px" y="0px"
	 viewBox="0 0 716 612" style="enable-background:new 0 0 716 612;" xml:space="preserve">
<style type="text/css">
	.st0{fill:#42AC41;}
	.st1{fill:#F7F8F8;}
	.st2{fill:#F6A22F;}
	.st3{fill:#65BEC5;}
	.st4{fill:#A4D7DB;}
	.st5{fill:#34AAAA;}
	.st6{fill:#FFFFFF;}
	.st7{fill:#C8E6EC;}
	.st8{fill:#86CDD6;}
	.st9{fill:#A1D6DC;}
	.st10{fill:#48B2B7;}
	.st11{fill:#9CD6E9;}
	.st12{fill:#F69F29;}
	.st13{fill:#F7BD6C;}
	.st14{fill:#FEF5AD;}
	.st15{fill:#ED6F1A;}
	.st16{fill:#E52421;}
	.st17{fill:#EB8E10;}
	.st18{fill:#E45D0F;}
	.st19{fill:#E27F08;}
	.st20{fill:#FFCF02;}
	.st21{fill:#FFF4D7;}
	.st22{fill:#FFEDB3;}
	.st23{fill:#E0E0E0;}
	.st24{fill:#FFE69D;}
	.st25{fill:#FFD879;}
	.st26{fill:#6C7483;}
	.st27{fill:#D98D8D;}
	.st28{fill:#E74219;}
	.st29{fill:#7D8390;}
	.st30{fill:#2E384C;}
	.st31{fill:#1D283E;}
	.st32{fill:#F1898A;}
	.st33{fill:#E05958;}
	.st34{fill:#E2A7A7;}
	.st35{fill:#E14118;}
</style>
<g id="Grupo_354" transform="translate(-49.53 -297.944)">
	<g id="Grupo_302" transform="translate(49.53 297.944)">
		<g id="Grupo_76" transform="translate(29.797 64.799)">
			<g id="Grupo_73" transform="translate(0.318)">
				<path id="Trazado_78" class="st0" d="M73.18,164.68c-0.19,0-0.36,0-0.55-0.03c-2.62-0.29-4.52-2.68-4.23-5.3l0,0
					c0.71-6.11,1.42-9.73,1.45-9.89c0.61-2.59,3.2-4.17,5.78-3.59c2.46,0.58,4.07,2.97,3.62,5.49c0,0.03-0.68,3.43-1.32,9.08
					C77.67,162.87,75.64,164.68,73.18,164.68z"/>
			</g>
			<g id="Grupo_74" transform="translate(0 12.633)">
				<path id="Trazado_79" class="st0" d="M204.09,301.55h-2.49c-2.65,0.03-4.82-2.1-4.85-4.75c-0.03-2.65,2.1-4.82,4.75-4.85
					c0.06,0,0.16,0,0.23,0h2.36c4.88,0,9.99-0.16,15.22-0.45c2.65-0.16,4.91,1.84,5.11,4.49c0.16,2.65-1.84,4.91-4.49,5.11
					c-0.03,0-0.03,0-0.06,0C214.44,301.39,209.14,301.55,204.09,301.55z M250.95,299.35c-2.65-0.03-4.78-2.23-4.72-4.88
					c0.03-2.52,2-4.56,4.49-4.72c6.46-0.32,12.44-0.58,17.97-0.78c2.59-0.16,4.82,1.81,4.98,4.43c0,0.06,0,0.13,0,0.19
					c0.1,2.65-1.97,4.88-4.62,4.98l0,0c-5.53,0.23-11.47,0.48-17.87,0.78L250.95,299.35z M170.42,298.93
					c-0.26,0-0.55-0.03-0.81-0.06c-6.08-1-12.09-2.39-18.03-4.1c-2.52-0.81-3.91-3.49-3.13-6.01c0.78-2.46,3.33-3.85,5.82-3.2
					c5.56,1.62,11.21,2.91,16.93,3.85c2.62,0.42,4.39,2.91,3.94,5.53C174.78,297.25,172.78,298.93,170.42,298.93L170.42,298.93z
					 M318.2,298.35h-0.29c-4.75-0.29-10.66-0.45-17.64-0.45c-2.65,0-4.78-2.13-4.78-4.78s2.13-4.78,4.78-4.78l0,0
					c7.14,0,13.28,0.16,18.23,0.45c2.65,0.13,4.69,2.39,4.56,5.04C322.89,296.38,320.76,298.39,318.2,298.35L318.2,298.35z
					 M124.24,282.52c-0.87,0-1.75-0.23-2.49-0.71c-5.36-3.26-10.41-6.98-15.09-11.12c-1.97-1.75-2.17-4.78-0.42-6.79
					c1.75-1.97,4.78-2.17,6.79-0.42l0,0c4.27,3.78,8.85,7.14,13.73,10.11c2.26,1.39,2.97,4.33,1.62,6.59
					C127.51,281.65,125.92,282.52,124.24,282.52L124.24,282.52z M90.05,247.71c-1.71,0-3.26-0.9-4.14-2.36
					c-3.13-5.4-5.88-10.99-8.14-16.8c-0.94-2.49,0.32-5.24,2.81-6.17c2.42-0.9,5.11,0.26,6.11,2.65c2.1,5.33,4.59,10.5,7.5,15.45
					c1.36,2.29,0.58,5.24-1.71,6.56C91.73,247.49,90.89,247.71,90.05,247.71L90.05,247.71z M74.25,201.28
					c-2.36,0-4.36-1.75-4.72-4.07c-0.9-6.08-1.52-12.22-1.81-18.36c-0.06-2.65,2.04-4.85,4.65-4.91c2.59-0.06,4.75,1.91,4.91,4.46
					c0.26,5.82,0.84,11.63,1.71,17.39c0.39,2.62-1.39,5.07-4.04,5.46C74.73,201.24,74.48,201.28,74.25,201.28L74.25,201.28z"/>
			</g>
			<g id="Grupo_75" transform="translate(74.181 51.555)">
				<path id="Trazado_80" class="st0" d="M238.01,272.91c-2.65,0-4.78-2.17-4.78-4.82c0-2.2,1.52-4.1,3.65-4.65
					c0.03,0,4.27-1.07,8.89-2.55c2.52-0.81,5.24,0.58,6.04,3.1c0.81,2.52-0.58,5.24-3.1,6.04c-4.94,1.62-9.34,2.68-9.53,2.75
					C238.79,272.85,238.4,272.91,238.01,272.91z"/>
			</g>
		</g>
		<g id="Grupo_77" transform="translate(99.813 67.903)">
			<path id="Trazado_81" class="st0" d="M404.16,544.18c-0.13,0-0.26,0-0.39,0c-6.53-0.55-13.02-1.39-19.49-2.59
				c-2.62-0.42-4.39-2.88-3.97-5.49c0.42-2.62,2.88-4.39,5.49-3.97c0.06,0,0.13,0.03,0.19,0.03c6.14,1.13,12.31,1.94,18.52,2.46
				c2.65,0.23,4.59,2.59,4.36,5.2C408.69,542.27,406.65,544.18,404.16,544.18L404.16,544.18z M437.67,544.02
				c-2.65-0.03-4.78-2.17-4.78-4.82c0-2.46,1.87-4.49,4.33-4.75c6.2-0.55,12.44-1.45,18.52-2.62c2.59-0.52,5.11,1.2,5.62,3.81
				c0.52,2.59-1.2,5.11-3.78,5.62c-6.4,1.23-12.93,2.17-19.45,2.78C438,544.02,437.84,544.02,437.67,544.02z M352.84,532.67
				c-0.58,0-1.13-0.13-1.68-0.32c-6.11-2.29-12.18-4.94-18.03-7.82c-2.39-1.16-3.36-4.04-2.17-6.43s4.04-3.36,6.43-2.17l0,0
				c5.59,2.78,11.31,5.24,17.16,7.43c2.49,0.94,3.75,3.68,2.81,6.17C356.66,531.41,354.85,532.67,352.84,532.67L352.84,532.67z
				 M488.89,532.06c-2.65,0-4.82-2.13-4.82-4.78c0-1.97,1.23-3.78,3.07-4.49c5.82-2.23,11.5-4.78,17.1-7.59
				c2.36-1.23,5.24-0.32,6.46,2.04c1.23,2.36,0.32,5.24-2.04,6.46c-0.03,0.03-0.06,0.03-0.1,0.06c-5.85,2.97-11.86,5.66-17.97,8.01
				C490.09,531.96,489.48,532.06,488.89,532.06L488.89,532.06z M306.63,507.6c-1.03,0-2.04-0.32-2.84-0.94
				c-5.27-3.88-10.37-8.08-15.22-12.44c-1.97-1.78-2.1-4.82-0.32-6.79c1.78-1.97,4.82-2.1,6.79-0.32
				c4.62,4.17,9.47,8.14,14.48,11.83c2.13,1.58,2.59,4.59,1,6.72C309.61,506.85,308.18,507.6,306.63,507.6L306.63,507.6z
				 M534.91,506.56c-2.65,0-4.78-2.13-4.82-4.78c0-1.52,0.71-2.94,1.91-3.85c4.98-3.72,9.79-7.76,14.38-11.96
				c1.94-1.81,4.98-1.68,6.79,0.29c1.81,1.94,1.68,4.98-0.29,6.79c-4.82,4.43-9.86,8.63-15.12,12.57
				C536.95,506.24,535.91,506.56,534.91,506.56L534.91,506.56z M268.98,470.89c-1.49,0-2.88-0.68-3.78-1.84
				c-4.01-5.17-7.82-10.57-11.28-16.09c-1.36-2.29-0.61-5.24,1.68-6.56c2.2-1.29,5.01-0.65,6.43,1.45
				c3.3,5.24,6.92,10.41,10.73,15.32c1.62,2.1,1.26,5.11-0.84,6.72l0,0C271.09,470.53,270.05,470.89,268.98,470.89z M572.2,469.53
				c-2.65,0-4.78-2.17-4.78-4.78c0-1.07,0.36-2.07,1-2.91c3.75-4.94,7.34-10.11,10.6-15.41c1.39-2.26,4.33-2.94,6.59-1.55
				s2.94,4.33,1.58,6.59c-3.43,5.59-7.14,10.99-11.15,16.19C575.11,468.85,573.72,469.53,572.2,469.53L572.2,469.53z M242.68,425.35
				c-1.94,0-3.72-1.2-4.46-3.01c-2.46-6.04-4.62-12.31-6.46-18.58c-0.81-2.52,0.61-5.24,3.13-6.01c2.52-0.81,5.24,0.61,6.01,3.13
				c0.03,0.06,0.03,0.13,0.06,0.19c1.75,5.98,3.81,11.86,6.14,17.64c1,2.46-0.19,5.27-2.65,6.24
				C243.91,425.22,243.29,425.35,242.68,425.35L242.68,425.35z M598.12,423.74c-0.61,0-1.2-0.1-1.78-0.32
				c-2.46-0.97-3.65-3.75-2.68-6.2c2.29-5.78,4.3-11.73,5.98-17.71c0.78-2.55,3.46-3.97,5.98-3.2c2.46,0.74,3.91,3.33,3.26,5.82
				c-1.78,6.3-3.88,12.54-6.3,18.61C601.84,422.54,600.06,423.74,598.12,423.74L598.12,423.74z M229.85,374.36
				c-2.46,0-4.49-1.84-4.75-4.3c-0.71-6.46-1.1-13.06-1.16-19.62c-0.03-2.65,2.1-4.82,4.75-4.85h0.03c2.62,0,4.78,2.13,4.78,4.75
				c0.06,6.24,0.42,12.51,1.1,18.68c0.29,2.62-1.62,5.01-4.23,5.3l0,0C230.21,374.33,230.01,374.36,229.85,374.36z M610.47,372.65
				c-0.16,0-0.32,0-0.48-0.03c-2.65-0.26-4.56-2.62-4.3-5.24l0,0c0.61-6.17,0.94-12.44,0.94-18.68c0-2.65,2.13-4.78,4.78-4.78
				c2.65,0,4.78,2.13,4.78,4.78c0,6.56-0.32,13.15-0.97,19.62C614.99,370.77,612.96,372.65,610.47,372.65L610.47,372.65z
				 M610.08,330.89c-2.42,0-4.49-1.81-4.75-4.23c-0.74-6.17-1.78-12.34-3.1-18.42c-0.58-2.59,1.03-5.14,3.62-5.72
				s5.14,1.03,5.72,3.62v0.03c1.42,6.4,2.52,12.86,3.26,19.39c0.32,2.62-1.58,5.01-4.2,5.33
				C610.47,330.89,610.27,330.89,610.08,330.89L610.08,330.89z M231.37,321.81c-0.26,0-0.52-0.03-0.81-0.06
				c-2.62-0.42-4.36-2.91-3.94-5.53l0,0c1.07-6.46,2.49-12.86,4.2-19.2c0.78-2.55,3.43-3.97,5.98-3.23c2.46,0.74,3.88,3.26,3.3,5.75
				c-1.65,6.01-2.97,12.12-4.01,18.26C235.7,320.1,233.7,321.81,231.37,321.81L231.37,321.81z M596.83,280.03
				c-1.94,0-3.68-1.16-4.43-2.94c-2.39-5.72-5.11-11.41-8.05-16.87c-1.26-2.33-0.39-5.24,1.94-6.5c2.33-1.26,5.24-0.39,6.5,1.94l0,0
				c3.1,5.78,5.95,11.7,8.47,17.74c1,2.46-0.13,5.27-2.59,6.27C598.06,279.9,597.44,280.03,596.83,280.03L596.83,280.03z
				 M247.07,271.63c-0.71,0-1.42-0.16-2.07-0.45c-2.39-1.13-3.43-4.01-2.29-6.4c2.81-5.91,5.91-11.7,9.31-17.32
				c1.32-2.29,4.27-3.07,6.56-1.75s3.07,4.27,1.75,6.56c-0.03,0.03-0.06,0.1-0.06,0.13c-3.23,5.33-6.17,10.86-8.85,16.48
				C250.63,270.56,248.95,271.63,247.07,271.63L247.07,271.63z M570.14,234.72c-1.45,0-2.84-0.68-3.78-1.81
				c-3.85-4.88-8.01-9.6-12.34-14.06c-1.84-1.91-1.81-4.94,0.1-6.79c1.91-1.84,4.94-1.81,6.79,0.1c4.56,4.69,8.92,9.66,12.96,14.77
				c1.65,2.07,1.29,5.11-0.78,6.75C572.27,234.33,571.2,234.72,570.14,234.72L570.14,234.72z M275.93,227.64
				c-2.65,0-4.78-2.13-4.78-4.78c0-1.16,0.42-2.29,1.2-3.17c4.3-4.91,8.89-9.66,13.67-14.15c1.94-1.81,4.98-1.71,6.79,0.23
				c1.81,1.94,1.71,4.98-0.23,6.79l0,0c-4.52,4.27-8.89,8.79-12.99,13.44C278.65,227.03,277.32,227.64,275.93,227.64L275.93,227.64z
				 M532.13,198.33c-1,0-2-0.32-2.81-0.9c-5.04-3.65-10.31-7.08-15.67-10.18c-2.26-1.39-2.97-4.36-1.58-6.59
				c1.32-2.17,4.14-2.91,6.4-1.68c5.62,3.26,11.18,6.88,16.48,10.7c2.13,1.55,2.62,4.56,1.07,6.72
				C535.11,197.62,533.65,198.33,532.13,198.33L532.13,198.33z M315.65,193.13c-2.65,0-4.78-2.17-4.78-4.82
				c0-1.62,0.81-3.13,2.17-4.01c5.46-3.55,11.18-6.92,16.97-9.92c2.33-1.29,5.24-0.45,6.53,1.87c1.29,2.33,0.45,5.24-1.87,6.53
				c-0.06,0.03-0.16,0.1-0.23,0.13c-5.53,2.88-10.92,6.01-16.16,9.44C317.46,192.87,316.55,193.13,315.65,193.13L315.65,193.13z
				 M485.66,173.68c-0.55,0-1.13-0.1-1.65-0.29c-5.85-2.13-11.83-3.97-17.87-5.53c-2.55-0.65-4.1-3.26-3.46-5.82
				c0.65-2.55,3.26-4.1,5.82-3.46l0,0c6.37,1.62,12.64,3.55,18.78,5.78c2.49,0.9,3.78,3.65,2.88,6.14
				C489.48,172.42,487.67,173.68,485.66,173.68L485.66,173.68z M363.19,170.74c-2.65-0.03-4.78-2.17-4.78-4.82
				c0-2.07,1.36-3.91,3.33-4.56c6.27-1.94,12.64-3.59,19.07-4.88c2.59-0.52,5.14,1.16,5.66,3.75s-1.16,5.14-3.75,5.66l0,0
				c-6.11,1.23-12.15,2.78-18.1,4.62C364.16,170.67,363.67,170.74,363.19,170.74L363.19,170.74z M434.25,162.66
				c-0.13,0-0.23,0-0.36,0c-4.69-0.36-9.57-0.45-14.22-0.52c-1.49,0-2.97,0.03-4.46,0.06c-2.65,0.06-4.85-2.04-4.91-4.69
				c-0.06-2.62,2.04-4.82,4.65-4.91c1.71-0.03,3.39-0.06,5.14-0.06c4.85,0,9.73,0.16,14.51,0.55c2.65,0.19,4.62,2.49,4.43,5.14
				C438.87,160.72,436.77,162.66,434.25,162.66L434.25,162.66z"/>
		</g>
		<g id="Grupo_81" transform="translate(41.807 126.948)">
			<g id="Grupo_78" transform="translate(51.214)">
				<path id="Trazado_82" class="st0" d="M213.59,303.44c-0.19,0-0.36,0-0.55-0.03c-2.62-0.29-4.52-2.65-4.23-5.27l0,0
					c0.61-5.66,0.65-9.02,0.65-9.05c0-2.65,2.17-4.78,4.78-4.78l0,0c2.65,0,4.78,2.13,4.78,4.78l0,0c0,0.16,0,3.85-0.71,10.08
					C218.05,301.6,216.02,303.44,213.59,303.44z"/>
			</g>
			<g id="Grupo_79" transform="translate(12.728 12.98)">
				<path id="Trazado_83" class="st0" d="M127.68,444.15c-2.65,0-4.78-2.13-4.78-4.78c0-2,1.23-3.78,3.1-4.49
					c5.82-2.2,11.57-4.65,17.06-7.24c2.39-1.13,5.27-0.13,6.4,2.29c1.13,2.39,0.13,5.27-2.29,6.4l0,0
					c-5.72,2.71-11.7,5.27-17.77,7.56C128.84,444.06,128.29,444.15,127.68,444.15z M173.82,420.27c-2.65,0-4.82-2.13-4.82-4.78
					c0-1.58,0.78-3.07,2.07-3.97c5.07-3.49,10.02-7.27,14.67-11.18c2-1.75,5.01-1.55,6.79,0.45c1.75,2,1.55,5.01-0.45,6.79
					c-0.03,0.03-0.1,0.06-0.13,0.1c-4.88,4.14-10.08,8.08-15.45,11.76C175.76,419.98,174.79,420.27,173.82,420.27L173.82,420.27z
					 M212.12,385.21c-2.65,0-4.78-2.13-4.78-4.78c0-1.1,0.39-2.2,1.1-3.04c3.88-4.75,7.53-9.73,10.89-14.87
					c1.45-2.23,4.43-2.84,6.66-1.39c2.23,1.45,2.84,4.43,1.39,6.66c-3.55,5.43-7.4,10.66-11.47,15.67
					C214.9,384.56,213.54,385.21,212.12,385.21z M238.81,340.68c-2.65,0-4.78-2.13-4.82-4.78c0-0.65,0.13-1.26,0.39-1.87
					c2.39-5.69,4.49-11.47,6.3-17.35c0.78-2.52,3.46-3.94,5.98-3.17c2.52,0.78,3.94,3.46,3.17,5.98l0,0
					c-1.91,6.2-4.1,12.34-6.62,18.26C242.5,339.51,240.75,340.68,238.81,340.68z"/>
			</g>
			<g id="Grupo_80" transform="translate(0 53.546)">
				<path id="Trazado_84" class="st0" d="M99.27,415.53c-2.65,0-4.78-2.17-4.78-4.82c0-2.26,1.58-4.2,3.81-4.69
					c3.13-0.65,6.2-1.36,9.21-2.1c2.59-0.58,5.14,1.03,5.72,3.62c0.55,2.52-0.97,5.01-3.46,5.69c-3.1,0.74-6.27,1.49-9.5,2.17
					C99.95,415.5,99.63,415.53,99.27,415.53z"/>
			</g>
		</g>
		<g id="Grupo_85" transform="translate(86.189 19.551)">
			<g id="Grupo_82" transform="translate(13.133)">
				<path id="Trazado_85" class="st0" d="M227.66,57.6c-2.65,0-4.78-2.17-4.78-4.82c0-1.87,1.1-3.62,2.84-4.36
					c3.13-1.45,6.37-2.65,9.69-3.62c2.55-0.68,5.2,0.84,5.88,3.39c0.68,2.55-0.84,5.2-3.39,5.88c-2.81,0.84-5.56,1.87-8.24,3.1
					C228.98,57.44,228.3,57.57,227.66,57.6z"/>
			</g>
			<g id="Grupo_83" transform="translate(0 7.255)">
				<path id="Trazado_86" class="st0" d="M268.6,287.37c-1.75,0-3.36-0.94-4.2-2.49c-2.97-5.4-6.17-11.18-9.44-17.29
					c-1.29-2.33-0.45-5.24,1.87-6.53c2.33-1.29,5.24-0.45,6.53,1.87c0.03,0.03,0.03,0.06,0.06,0.1c3.26,6.08,6.43,11.83,9.4,17.19
					c1.26,2.33,0.42,5.24-1.91,6.53C270.19,287.14,269.38,287.33,268.6,287.37L268.6,287.37z M243.27,239.63
					c-1.81,0-3.46-1-4.3-2.65c-2.94-5.82-5.88-11.73-8.76-17.68c-1.1-2.42-0.03-5.27,2.36-6.37c2.33-1.07,5.11-0.1,6.27,2.2
					c2.84,5.91,5.75,11.76,8.66,17.52c1.2,2.36,0.23,5.27-2.13,6.46C244.72,239.47,244.01,239.63,243.27,239.63L243.27,239.63z
					 M220.19,190.77c-1.91,0-3.65-1.13-4.39-2.91c-2.75-6.4-5.3-12.57-7.53-18.32c-0.97-2.46,0.26-5.24,2.75-6.2
					c2.46-0.97,5.24,0.26,6.2,2.75c2.2,5.66,4.69,11.7,7.4,18c1.03,2.42-0.06,5.27-2.49,6.3l0,0
					C221.49,190.64,220.84,190.77,220.19,190.77L220.19,190.77z M201.87,140.04c-2.2,0-4.1-1.49-4.65-3.59
					c-1.26-4.85-2.29-9.73-3.04-14.67c-0.26-1.84-0.48-3.62-0.65-5.4c-0.29-2.62,1.58-5.01,4.23-5.3c2.62-0.29,5.01,1.58,5.3,4.23
					c0,0.06,0,0.16,0.03,0.23c0.13,1.58,0.32,3.2,0.58,4.85c0.71,4.59,1.65,9.18,2.84,13.67c0.65,2.55-0.87,5.17-3.46,5.85
					C202.68,139.97,202.29,140,201.87,140.04L201.87,140.04z M202.94,87.04c-0.65,0-1.26-0.13-1.84-0.36
					c-2.46-1.03-3.62-3.85-2.59-6.27c2.75-6.5,6.46-12.54,11.08-17.9c1.71-2,4.75-2.23,6.75-0.52c2,1.71,2.23,4.75,0.52,6.75
					c-3.94,4.59-7.14,9.76-9.5,15.35C206.62,85.88,204.88,87.04,202.94,87.04L202.94,87.04z"/>
			</g>
			<g id="Grupo_84" transform="translate(26.987 83.608)">
				<path id="Trazado_87" class="st0" d="M263.42,249.06c-1.68,0-3.26-0.87-4.1-2.33c0,0-1.81-3.01-4.91-8.31
					c-1.32-2.29-0.58-5.24,1.71-6.56s5.24-0.58,6.56,1.71c3.04,5.2,4.82,8.18,4.85,8.18c1.36,2.26,0.61,5.2-1.65,6.59
					C265.16,248.83,264.29,249.06,263.42,249.06z"/>
			</g>
		</g>
		<g id="Grupo_137" transform="translate(98.783)">
			<g id="Grupo_136">
				<g id="Grupo_135">
					<g id="Grupo_107">
						<g id="Grupo_87">
							<g id="Grupo_86">
								<rect id="Rectángulo_15" x="221.64" y="1.01" class="st1" width="155.99" height="190.34"/>
							</g>
						</g>
						<g id="Grupo_106" transform="translate(4.797 5.698)">
							<g id="Grupo_89">
								<g id="Grupo_88">
									<rect id="Rectángulo_16" x="232.34" y="13.73" class="st2" width="62.95" height="49.57"/>
								</g>
							</g>
							<g id="Grupo_91" transform="translate(23.777)">
								<g id="Grupo_90">
									<path id="Trazado_88" class="st3" d="M333.55,21.26H285.4l2.2-7.53h48.15L333.55,21.26z"/>
								</g>
							</g>
							<g id="Grupo_93" transform="translate(23.777 6.506)">
								<g id="Grupo_92">
									<path id="Trazado_89" class="st4" d="M333.55,35.74H285.4l2.2-7.5h48.15L333.55,35.74z"/>
								</g>
							</g>
							<g id="Grupo_95" transform="translate(23.777 13.009)">
								<g id="Grupo_94">
									<path id="Trazado_90" class="st4" d="M333.55,50.29H285.4l2.2-7.53h48.15L333.55,50.29z"/>
								</g>
							</g>
							<g id="Grupo_97" transform="translate(0 22.586)">
								<g id="Grupo_96">
									<rect id="Rectángulo_17" x="232.34" y="64.13" class="st4" width="125" height="7.53"/>
								</g>
							</g>
							<g id="Grupo_99" transform="translate(0 27.917)">
								<g id="Grupo_98">
									<rect id="Rectángulo_18" x="232.34" y="76.03" class="st4" width="125" height="7.53"/>
								</g>
							</g>
							<g id="Grupo_101" transform="translate(0 33.248)">
								<g id="Grupo_100">
									<rect id="Rectángulo_19" x="232.34" y="87.92" class="st4" width="125" height="7.53"/>
								</g>
							</g>
							<g id="Grupo_103" transform="translate(0 38.576)">
								<g id="Grupo_102">
									<rect id="Rectángulo_20" x="232.34" y="99.81" class="st4" width="125" height="7.53"/>
								</g>
							</g>
							<g id="Grupo_105" transform="translate(0 43.908)">
								<g id="Grupo_104">
									<rect id="Rectángulo_21" x="232.34" y="111.71" class="st4" width="125" height="7.53"/>
								</g>
							</g>
						</g>
					</g>
					<g id="Grupo_109" transform="translate(33.705 36.764)">
						<g id="Grupo_108">
							<path id="Trazado_91" class="st5" d="M370.4,156.47l-0.13,0.13c-3.39,3.39-10.08,2.26-14.93-2.59l-58.49-58.49l12.47-12.47
								l58.49,58.49C372.63,146.39,373.8,153.08,370.4,156.47z"/>
						</g>
					</g>
					<g id="Grupo_111" transform="translate(11.54 15.507)">
						<g id="Grupo_110">
							<path id="Trazado_92" class="st5" d="M297.25,35.62c-27.53,0-49.86,22.3-49.86,49.83s22.3,49.86,49.83,49.86
								c27.53,0,49.86-22.3,49.86-49.83l0,0C347.08,57.91,324.75,35.62,297.25,35.62z M297.25,125.65
								c-22.17-0.03-40.1-18.03-40.07-40.17s18.03-40.1,40.17-40.07c22.1,0.03,40.04,17.94,40.07,40.04
								c0.16,22.01-17.52,40.01-39.55,40.17C297.67,125.65,297.45,125.65,297.25,125.65L297.25,125.65z"/>
						</g>
					</g>
					<g id="Grupo_113" transform="translate(32.12 35.971)">
						<g id="Grupo_112">
							<path id="Trazado_93" class="st3" d="M366.87,154.71l-0.13,0.13c-3.39,3.43-10.08,2.26-14.93-2.59l-58.49-58.49l12.47-12.47
								l58.49,58.49C369.1,144.62,370.26,151.31,366.87,154.71z"/>
						</g>
					</g>
					<g id="Grupo_115" transform="translate(12.945 17.705)">
						<g id="Grupo_114">
							<path id="Trazado_94" class="st4" d="M330.9,80.69c0,22.2-18,40.17-40.17,40.17c-22.2,0-40.17-18-40.17-40.17
								c0-22.2,18-40.17,40.17-40.17S330.9,58.52,330.9,80.69L330.9,80.69z"/>
						</g>
					</g>
					<g id="Grupo_120" transform="translate(12.945 17.705)">
						<g id="Grupo_117">
							<g id="Grupo_116">
								<path id="Trazado_95" class="st3" d="M305.04,54.87c7.14,0,14.15,1.91,20.29,5.56c-11.21-19.13-35.81-25.59-54.94-14.38
									s-25.59,35.81-14.38,54.94c3.49,5.95,8.43,10.89,14.38,14.38c-11.25-19.1-4.88-43.69,14.22-54.94
									C290.82,56.78,297.87,54.87,305.04,54.87L305.04,54.87z"/>
							</g>
						</g>
						<g id="Grupo_119" transform="translate(4.438 4.438)">
							<g id="Grupo_118">
								<path id="Trazado_96" class="st4" d="M320.89,55.98c-19.1-11.25-43.69-4.88-54.94,14.19c-7.4,12.57-7.4,28.18,0,40.75
									c19.1,11.25,43.69,4.88,54.94-14.22C328.29,84.13,328.29,68.52,320.89,55.98z"/>
							</g>
						</g>
					</g>
					<g id="Grupo_123" transform="translate(13.841 20.246)">
						<g id="Grupo_122">
							<g id="Grupo_121">
								<path id="Trazado_97" class="st6" d="M256.98,82.61c-2.46,0-4.46-2-4.46-4.46c-0.03-12.6,6.37-24.37,16.93-31.25
									c2.07-1.36,4.82-0.78,6.17,1.29c1.36,2.07,0.78,4.82-1.29,6.17l0,0c-8.05,5.24-12.89,14.19-12.89,23.78
									C261.44,80.61,259.44,82.61,256.98,82.61L256.98,82.61z"/>
							</g>
						</g>
					</g>
					<g id="Grupo_128" transform="translate(12.945 17.705)">
						<g id="Grupo_125">
							<g id="Grupo_124">
								<path id="Trazado_98" class="st4" d="M305.04,54.87c7.14,0,14.15,1.91,20.29,5.56c-11.21-19.13-35.81-25.59-54.94-14.38
									s-25.59,35.81-14.38,54.94c3.49,5.95,8.43,10.89,14.38,14.38c-11.25-19.1-4.88-43.69,14.22-54.94
									C290.82,56.78,297.87,54.87,305.04,54.87L305.04,54.87z"/>
							</g>
						</g>
						<g id="Grupo_127" transform="translate(4.438 4.438)">
							<g id="Grupo_126">
								<path id="Trazado_99" class="st7" d="M320.89,55.98c-19.1-11.25-43.69-4.88-54.94,14.19c-7.4,12.57-7.4,28.18,0,40.75
									c19.1,11.25,43.69,4.88,54.94-14.22C328.29,84.13,328.29,68.52,320.89,55.98z"/>
							</g>
						</g>
					</g>
					<g id="Grupo_130" transform="translate(22.551 28.245)">
						<g id="Grupo_129">
							<path id="Trazado_100" class="st8" d="M323.8,85.14h-51.83l6.56-21.1h45.27V85.14z"/>
						</g>
					</g>
					<g id="Grupo_132" transform="translate(9.954 14.714)">
						<g id="Grupo_131">
							<path id="Trazado_101" class="st3" d="M293.71,33.85c-27.53,0-49.86,22.33-49.86,49.83c0,27.53,22.33,49.86,49.86,49.86
								c27.53,0,49.83-22.33,49.83-49.83C343.55,56.18,321.22,33.85,293.71,33.85z M293.71,123.88
								c-22.17-0.03-40.1-18.03-40.07-40.17c0.03-22.17,18.03-40.1,40.17-40.07c22.14,0.03,40.04,17.97,40.07,40.07
								c0.1,22.1-17.74,40.07-39.85,40.17C293.91,123.88,293.81,123.88,293.71,123.88z"/>
						</g>
					</g>
					<g id="Grupo_134" transform="translate(14.602 20.079)">
						<g id="Grupo_133">
							<path id="Trazado_102" class="st6" d="M256.78,80.69c-1.42,0-2.55-1.13-2.55-2.55c0.03-17.84,14.48-32.28,32.28-32.28
								c1.42,0.06,2.52,1.23,2.46,2.65c-0.03,1.36-1.13,2.42-2.46,2.46c-14.99,0-27.15,12.18-27.18,27.18
								C259.36,79.52,258.2,80.69,256.78,80.69L256.78,80.69z"/>
						</g>
					</g>
				</g>
			</g>
		</g>
		<g id="Grupo_248" transform="translate(75.576 72.503)">
			<g id="Grupo_226" transform="translate(24.053 5.792)">
				<g id="Grupo_201">
					<g id="Grupo_140" transform="translate(5.185 86.644)">
						<g id="Grupo_139">
							<g id="Grupo_138">
								<path id="Trazado_103" class="st7" d="M378.42,369.09H235.1v23.98h143.32V369.09z"/>
							</g>
						</g>
					</g>
					<g id="Grupo_143" transform="translate(49.534 86.644)">
						<g id="Grupo_142">
							<g id="Grupo_141">
								<path id="Trazado_104" class="st9" d="M450.34,369.09H334.07v23.98h143.32v-23.98H450.34L450.34,369.09z"/>
							</g>
						</g>
					</g>
					<g id="Grupo_146" transform="translate(0 94.069)">
						<g id="Grupo_145">
							<g id="Grupo_144">
								<path id="Trazado_105" class="st9" d="M240.27,385.66h-16.74v24.01h160.06v-24.01H240.27z"/>
							</g>
						</g>
					</g>
					<g id="Grupo_149" transform="translate(49.534 94.069)">
						<g id="Grupo_148">
							<g id="Grupo_147">
								<path id="Trazado_106" class="st8" d="M334.07,385.66v24.01h160.09v-24.01H334.07z"/>
							</g>
						</g>
					</g>
					<g id="Grupo_152" transform="translate(41.154 39.004)">
						<g id="Grupo_151">
							<g id="Grupo_150">
								<path id="Trazado_107" class="st3" d="M317.43,262.77c5.33,0,9.66,4.36,9.66,9.69v0.19c0,5.33-4.33,9.66-9.66,9.66l0,0
									h-2.07l3.85,134.4h23.27V262.77H317.43z"/>
							</g>
						</g>
					</g>
					<g id="Grupo_155" transform="translate(65.138 39.004)">
						<g id="Grupo_154">
							<g id="Grupo_153">
								<path id="Trazado_108" class="st10" d="M380.65,272.47v0.19c0,5.33-4.33,9.66-9.66,9.66l0,0h-2.1l3.85,134.4h46.5
									l3.81-134.4h-2.07c-5.33,0-9.66-4.33-9.66-9.66l0,0v-0.19c0-5.33,4.3-9.69,9.66-9.69c0,0,0,0,0.03,0h-50.03
									C376.32,262.77,380.65,267.1,380.65,272.47z"/>
							</g>
						</g>
					</g>
					<g id="Grupo_158" transform="translate(49.535 39.004)">
						<g id="Grupo_157">
							<g id="Grupo_156">
								<path id="Trazado_109" class="st10" d="M361.18,282.33h-2.07c-5.33,0-9.66-4.33-9.66-9.66l0,0v-0.19
									c0-5.33,4.3-9.69,9.66-9.69c0,0,0,0,0.03,0h-25.08v153.95h23.27L361.18,282.33z"/>
							</g>
						</g>
					</g>
					<g id="Grupo_161" transform="translate(17.168 39.004)">
						<g id="Grupo_160">
							<g id="Grupo_159">
								<path id="Trazado_110" class="st3" d="M313.93,282.33c-5.33,0-9.66-4.33-9.66-9.66v-0.19c0-5.33,4.33-9.69,9.66-9.69h-50.03
									c5.33,0,9.66,4.36,9.66,9.69v0.19c0,5.33-4.33,9.66-9.66,9.66h-2.07l3.85,134.4h46.5l3.85-134.4L313.93,282.33z"/>
							</g>
						</g>
					</g>
					<g id="Grupo_164" transform="translate(0 0.304)">
						<g id="Grupo_163">
							<g id="Grupo_162">
								<path id="Trazado_111" class="st7" d="M267.31,301.47h116.27v-16.16H272.81l110.78-86.54v-22.36L223.53,301.47H267.31
									L267.31,301.47z"/>
							</g>
						</g>
					</g>
					<g id="Grupo_167" transform="translate(49.534)">
						<g id="Grupo_166">
							<g id="Grupo_165">
								<path id="Trazado_112" class="st9" d="M334.94,198.39l109.94,87.22H334.1v16.16h160.09L335.36,175.73l-1.26,0.97v22.33
									L334.94,198.39z"/>
							</g>
						</g>
					</g>
					<g id="Grupo_170" transform="translate(49.534 7.008)">
						<g id="Grupo_169">
							<g id="Grupo_168">
								<path id="Trazado_113" class="st8" d="M334.94,191.37l-0.87,0.68v86.54h110.81L334.94,191.37z"/>
							</g>
						</g>
					</g>
					<g id="Grupo_173" transform="translate(15.254 7.218)">
						<g id="Grupo_172">
							<g id="Grupo_171">
								<path id="Trazado_114" class="st9" d="M257.57,278.38h110.78v-86.54L257.57,278.38z"/>
							</g>
						</g>
					</g>
					<g id="Grupo_176" transform="translate(6.308 39.004)">
						<g id="Grupo_175">
							<g id="Grupo_174">
								<path id="Trazado_115" class="st9" d="M255.34,262.77h-8.08c-5.36,0-9.69,4.33-9.69,9.69v0.19c0,5.33,4.33,9.66,9.69,9.66
									l0,0h2.07l-3.81,134.37h15.51V262.77H255.34z"/>
							</g>
						</g>
					</g>
					<g id="Grupo_179" transform="translate(13.555 39.004)">
						<g id="Grupo_178">
							<g id="Grupo_177">
								<path id="Trazado_116" class="st8" d="M267.54,282.33c5.33,0,9.66-4.33,9.66-9.66v-0.19c0-5.33-4.33-9.69-9.66-9.69h-13.77
									v153.95h15.51l-3.81-134.4L267.54,282.33z"/>
							</g>
						</g>
					</g>
					<g id="Grupo_182" transform="translate(30.294 39.004)">
						<g id="Grupo_181">
							<g id="Grupo_180">
								<path id="Trazado_117" class="st9" d="M300.79,262.77c-5.33,0-9.66,4.36-9.66,9.69v0.19c0,5.33,4.33,9.66,9.66,9.66h2.07
									l-3.85,134.37h15.51V262.77H300.79z"/>
							</g>
						</g>
					</g>
					<g id="Grupo_185" transform="translate(37.542 39.004)">
						<g id="Grupo_184">
							<g id="Grupo_183">
								<path id="Trazado_118" class="st8" d="M321.04,282.33c5.33,0,9.66-4.33,9.66-9.66l0,0v-0.19c0-5.33-4.33-9.69-9.66-9.69
									H307.3v153.95h15.51l-3.85-134.4L321.04,282.33z"/>
							</g>
						</g>
					</g>
					<g id="Grupo_188" transform="translate(54.281 39.004)">
						<g id="Grupo_187">
							<g id="Grupo_186">
								<path id="Trazado_119" class="st8" d="M344.66,272.47v0.19c0,5.33,4.33,9.66,9.66,9.66l0,0h2.07l-3.85,134.4h15.51V262.77
									h-13.77C348.96,262.77,344.66,267.1,344.66,272.47z"/>
							</g>
						</g>
					</g>
					<g id="Grupo_191" transform="translate(61.528 39.004)">
						<g id="Grupo_190">
							<g id="Grupo_189">
								<path id="Trazado_120" class="st3" d="M376.34,416.73l-3.85-134.4h2.07c5.33,0,9.66-4.33,9.66-9.66l0,0v-0.19
									c0-5.33-4.33-9.69-9.66-9.69h-13.73v153.95H376.34z"/>
							</g>
						</g>
					</g>
					<g id="Grupo_194" transform="translate(78.266 39.004)">
						<g id="Grupo_193">
							<g id="Grupo_192">
								<path id="Trazado_121" class="st8" d="M398.18,272.47v0.19c0,5.33,4.33,9.66,9.66,9.66l0,0h2.07l-3.81,134.4h15.51V262.77
									h-13.73C402.51,262.74,398.18,267.07,398.18,272.47C398.18,272.44,398.18,272.44,398.18,272.47z"/>
							</g>
						</g>
					</g>
					<g id="Grupo_197" transform="translate(87.271 39.004)">
						<g id="Grupo_196">
							<g id="Grupo_195">
								<path id="Trazado_122" class="st3" d="M418.28,416.73h9.82l-3.85-134.4h2.07c5.33,0,9.66-4.33,9.66-9.66l0,0v-0.19
									c0-5.33-4.33-9.69-9.66-9.69h-8.05V416.73z"/>
							</g>
						</g>
					</g>
					<g id="Grupo_200" transform="translate(85.514 39.004)">
						<g id="Grupo_199">
							<g id="Grupo_198">
								<rect id="Rectángulo_22" x="414.36" y="262.77" class="st3" width="5.69" height="153.95"/>
							</g>
						</g>
					</g>
				</g>
				<g id="Grupo_204" transform="translate(5.057 39.004)">
					<g id="Grupo_203">
						<g id="Grupo_202">
							<path id="Trazado_123" class="st11" d="M246.28,285.94h16v-23.17h-16c-6.33,0-11.47,5.14-11.47,11.47v0.23
								C234.81,280.81,239.95,285.94,246.28,285.94L246.28,285.94z"/>
						</g>
					</g>
				</g>
				<g id="Grupo_207" transform="translate(13.555 39.004)">
					<g id="Grupo_206">
						<g id="Grupo_205">
							<path id="Trazado_124" class="st9" d="M269.77,285.94h-16v-23.17h16c6.33,0,11.47,5.14,11.47,11.47l0,0v0.23
								C281.24,280.81,276.11,285.94,269.77,285.94L269.77,285.94z"/>
						</g>
					</g>
				</g>
				<g id="Grupo_210" transform="translate(29.042 39.004)">
					<g id="Grupo_209">
						<g id="Grupo_208">
							<path id="Trazado_125" class="st11" d="M299.81,285.94h16v-23.17h-16c-6.33,0-11.47,5.14-11.47,11.47l0,0v0.23
								C288.34,280.81,293.47,285.94,299.81,285.94z"/>
						</g>
					</g>
				</g>
				<g id="Grupo_213" transform="translate(37.542 39.004)">
					<g id="Grupo_212">
						<g id="Grupo_211">
							<path id="Trazado_126" class="st9" d="M323.3,285.94h-16v-23.17h16c6.33,0,11.47,5.14,11.47,11.47l0,0v0.23
								C334.77,280.81,329.63,285.94,323.3,285.94L323.3,285.94z"/>
						</g>
					</g>
				</g>
				<g id="Grupo_216" transform="translate(53.025 39.004)">
					<g id="Grupo_215">
						<g id="Grupo_214">
							<path id="Trazado_127" class="st8" d="M353.33,285.94h16v-23.17h-16c-6.33,0-11.47,5.14-11.47,11.47v0.23
								C341.86,280.81,346.99,285.94,353.33,285.94L353.33,285.94z"/>
						</g>
					</g>
				</g>
				<g id="Grupo_219" transform="translate(61.523 39.004)">
					<g id="Grupo_218">
						<g id="Grupo_217">
							<path id="Trazado_128" class="st3" d="M376.82,285.94h-16v-23.17h16c6.33,0,11.47,5.14,11.44,11.47l0,0v0.23
								C388.29,280.81,383.15,285.94,376.82,285.94C376.85,285.94,376.82,285.94,376.82,285.94z"/>
						</g>
					</g>
				</g>
				<g id="Grupo_222" transform="translate(77.006 39.004)">
					<g id="Grupo_221">
						<g id="Grupo_220">
							<path id="Trazado_129" class="st8" d="M406.84,285.94h16v-23.17h-16c-6.33,0-11.47,5.14-11.47,11.47l0,0v0.23
								C395.37,280.81,400.51,285.94,406.84,285.94L406.84,285.94z"/>
						</g>
					</g>
				</g>
				<g id="Grupo_225" transform="translate(85.506 39.004)">
					<g id="Grupo_224">
						<g id="Grupo_223">
							<path id="Trazado_130" class="st3" d="M430.34,285.94h-16v-23.17h16c6.33,0,11.47,5.14,11.47,11.47v0.23
								C441.81,280.81,436.67,285.94,430.34,285.94L430.34,285.94z"/>
						</g>
					</g>
				</g>
			</g>
			<g id="Grupo_247">
				<g id="Grupo_237">
					<g id="Grupo_228" transform="translate(1.611 1.611)">
						<g id="Grupo_227">
							<path id="Trazado_131" class="st12" d="M196.42,266.29v-37.07c18.48-5.17,32.96-19.65,38.13-38.13h43.53V166.4H216.3v2
								c-0.03,22.52-18.26,40.78-40.78,40.82h-2.07v54.9c-0.1,39.85,15.74,78.08,43.98,106.19l58.78,58.78h1.84v-29.67l-45.24-45.24
								C209.41,330.92,196.32,299.29,196.42,266.29z"/>
						</g>
					</g>
					<g id="Grupo_230">
						<g id="Grupo_229">
							<path id="Trazado_132" class="st13" d="M219.03,371.92c-28.24-28.11-44.08-66.34-43.98-106.19V210.8h2
								c22.52-0.03,40.75-18.29,40.78-40.82v-2h61.79v-5.17h-66.99v7.24c-0.03,19.65-15.93,35.58-35.58,35.61h-7.21v60.14
								c-0.13,41.24,16.25,80.79,45.5,109.87l60.3,60.27h4.01v-5.2h-1.84L219.03,371.92z"/>
						</g>
					</g>
					<g id="Grupo_232" transform="translate(8.718 9.251)">
						<g id="Grupo_231">
							<path id="Trazado_133" class="st14" d="M195.51,280.79c-1.36-7.3-2.04-14.7-2.04-22.14v-34
								c17.45-5.91,31.15-19.62,37.07-37.07h40.43v-4.14h-43.53c-5.17,18.48-19.65,32.96-38.13,38.13v37.07
								c-0.1,32.96,13.02,64.6,36.39,87.87l45.24,45.24v-5.85l-42.33-42.33C211.47,326.48,199.9,304.57,195.51,280.79z"/>
						</g>
					</g>
					<g id="Grupo_234" transform="translate(10.001 10.534)">
						<g id="Grupo_233">
							<path id="Trazado_134" class="st15" d="M229.23,186.32c-5.91,17.45-19.62,31.15-37.07,37.07v34c0,7.43,0.68,14.83,2.04,22.14
								c4.39,23.82,15.96,45.73,33.12,62.82l42.33,42.33V186.32H229.23z"/>
						</g>
					</g>
					<g id="Grupo_236" transform="translate(33.983 39.368)">
						<g id="Grupo_235">
							<rect id="Rectángulo_23" x="245.69" y="250.66" class="st16" width="0" height="105.16"/>
						</g>
					</g>
				</g>
				<g id="Grupo_246" transform="translate(33.985)">
					<g id="Grupo_239" transform="translate(0 1.611)">
						<g id="Grupo_238">
							<path id="Trazado_135" class="st17" d="M327.32,266.29v-37.07c-18.48-5.17-32.96-19.65-38.13-38.13h-43.5V166.4h61.79v2
								c0.03,22.52,18.26,40.78,40.78,40.82h2v54.9c0.1,39.85-15.74,78.08-43.98,106.16l-58.78,58.78h-1.81V399.4l45.24-45.24
								C314.33,330.92,327.42,299.29,327.32,266.29z"/>
						</g>
					</g>
					<g id="Grupo_241">
						<g id="Grupo_240">
							<path id="Trazado_136" class="st12" d="M306.31,371.92c28.24-28.08,44.08-66.34,43.98-106.19V210.8h-2
								c-22.52-0.03-40.78-18.29-40.78-40.82v-2h-61.82v-5.17h67.02v7.24c0.03,19.65,15.93,35.58,35.58,35.61h7.24v60.14
								c0.13,41.24-16.25,80.79-45.5,109.87l-60.3,60.27h-4.04v-5.2h1.87L306.31,371.92z"/>
						</g>
					</g>
					<g id="Grupo_243" transform="translate(0 9.251)">
						<g id="Grupo_242">
							<path id="Trazado_137" class="st13" d="M321.15,280.79c1.36-7.3,2.04-14.7,2.04-22.14v-34
								c-17.45-5.91-31.15-19.62-37.07-37.07h-40.43v-4.14h43.5c5.17,18.48,19.65,32.96,38.13,38.13v37.07
								c0.1,32.96-13.02,64.6-36.39,87.87l-45.24,45.24v-5.85l42.33-42.33C305.18,326.48,316.75,304.57,321.15,280.79z"/>
						</g>
					</g>
					<g id="Grupo_245" transform="translate(0 10.534)">
						<g id="Grupo_244">
							<path id="Trazado_138" class="st18" d="M286.15,186.32h-40.46v198.32l42.33-42.33c17.16-17.1,28.73-39.01,33.12-62.82
								c1.36-7.3,2.04-14.7,2.04-22.14v-34C305.77,217.47,292.06,203.77,286.15,186.32z"/>
						</g>
					</g>
				</g>
			</g>
		</g>
		<g id="Grupo_275" transform="translate(7.326 27.354)">
			<g id="Grupo_269">
				<g id="Grupo_250">
					<g id="Grupo_249">
						<path id="Trazado_139" class="st15" d="M32.54,108.14c0.03-17.16,13.93-31.06,31.06-31.06h17.19V62.05H63.59
							c-25.43,0-46.08,20.62-46.08,46.08l0,0v26.21h14.99v-26.21H32.54z"/>
					</g>
				</g>
				<g id="Grupo_252" transform="translate(19.574)">
					<g id="Grupo_251">
						<path id="Trazado_140" class="st18" d="M78.42,62.05H61.22v14.99h17.19c17.16,0,31.06,13.93,31.06,31.06v26.21h14.99V108.1
							C124.47,82.67,103.85,62.05,78.42,62.05L78.42,62.05z"/>
					</g>
				</g>
				<g id="Grupo_254" transform="translate(19.574 22.361)">
					<g id="Grupo_253">
						<rect id="Rectángulo_24" x="61.22" y="111.95" class="st13" width="48.25" height="0.61"/>
					</g>
				</g>
				<g id="Grupo_256" transform="translate(4.641 22.361)">
					<g id="Grupo_255">
						<rect id="Rectángulo_25" x="27.9" y="111.95" class="st13" width="48.25" height="0.61"/>
					</g>
				</g>
				<g id="Grupo_258" transform="translate(0 27.186)">
					<g id="Grupo_257">
						<path id="Trazado_141" class="st13" d="M68.38,193.53l9.18-33.03c-5.53-1.78-8.56-7.66-6.79-13.18
							c1.39-4.36,5.46-7.3,10.02-7.27v-17.32H17.54v89.16c0,15.32,12.41,27.73,27.73,27.73h35.55v-46.08H68.38z"/>
					</g>
				</g>
				<g id="Grupo_260" transform="translate(19.574 27.186)">
					<g id="Grupo_259">
						<path id="Trazado_142" class="st12" d="M61.22,140.01c0.68-0.03,1.39,0.03,2.07,0.13c5.72,1.13,9.4,6.69,8.27,12.38
							c-0.74,3.75-3.46,6.79-7.11,7.98l9.21,32.99H61.22v46.08h35.55c15.32,0,27.73-12.41,27.73-27.73v-89.13H61.22V140.01z"/>
					</g>
				</g>
				<g id="Grupo_262" transform="translate(0 22.361)">
					<g id="Grupo_261">
						<path id="Trazado_143" class="st13" d="M80.79,112.54H32.54v-0.58H17.54v15.58h63.24V112.54z"/>
					</g>
				</g>
				<g id="Grupo_264" transform="translate(19.574 22.361)">
					<g id="Grupo_263">
						<path id="Trazado_144" class="st12" d="M109.47,112.54H61.22v14.99h63.24v-15.58h-14.99V112.54z"/>
					</g>
				</g>
				<g id="Grupo_266" transform="translate(19.574 32.54)">
					<g id="Grupo_265">
						<path id="Trazado_145" class="st17" d="M73.67,188.15l-9.18-32.99c5.53-1.78,8.56-7.72,6.79-13.25
							c-1.16-3.65-4.23-6.37-7.98-7.11c-0.68-0.1-1.36-0.16-2.07-0.13v53.48H73.67z"/>
					</g>
				</g>
				<g id="Grupo_268" transform="translate(15.729 32.54)">
					<g id="Grupo_267">
						<path id="Trazado_146" class="st19" d="M54.74,147.21c0.74,3.75,3.49,6.79,7.11,7.95l-9.18,33.03h12.44v-53.52
							c-5.78-0.03-10.5,4.65-10.54,10.44C54.55,145.82,54.61,146.5,54.74,147.21z"/>
					</g>
				</g>
			</g>
			<g id="Grupo_274" transform="translate(30.397 28.509)">
				<g id="Grupo_271" transform="translate(22.166)">
					<g id="Grupo_270">
						<path id="Trazado_147" class="st20" d="M162.89,193.02h-0.39c-15.29,0-27.63-12.38-27.66-27.66v-12.02
							c0-15.29,12.38-27.66,27.66-27.66h0.39c15.29,0,27.66,12.38,27.66,27.66v12.02C190.52,180.64,178.15,193.02,162.89,193.02z
							 M162.5,143.35c-5.49,0-9.99,4.46-9.99,9.99v12.02c0,5.49,4.46,9.99,9.99,9.99h0.39c5.49,0,9.99-4.46,9.99-9.99v-12.02
							c0-5.49-4.46-9.99-9.99-9.99H162.5z"/>
					</g>
				</g>
				<g id="Grupo_273" transform="translate(0 7.962)">
					<g id="Grupo_272">
						<path id="Trazado_148" class="st20" d="M165.84,143.44H85.38v39.68h17.68v-24.95h7.92v18.06h11.67v-18.06h43.17v-14.74H165.84
							z"/>
					</g>
				</g>
			</g>
		</g>
		<g id="Grupo_301" transform="translate(0 123.482)">
			<g id="Grupo_300">
				<g id="Grupo_299">
					<g id="Grupo_283">
						<g id="Grupo_277" transform="translate(0 48.86)">
							<g id="Grupo_276">
								<path id="Trazado_149" class="st15" d="M5.07,385.61H1.19c-0.19,17.94,14.22,32.64,32.15,32.8
									c17.94,0.19,32.64-14.22,32.8-32.15c0-0.23,0-0.42,0-0.65H5.07z"/>
							</g>
						</g>
						<g id="Grupo_282" transform="translate(0.344)">
							<g id="Grupo_279" transform="translate(52.078 25.97)">
								<g id="Grupo_278">
									<path id="Trazado_150" class="st18" d="M182.04,334.53h-63.86c-0.36,17.94,13.9,32.77,31.83,33.12
										c17.94,0.36,32.77-13.9,33.12-31.83c0-0.42,0-0.87,0-1.29H182.04z"/>
								</g>
							</g>
							<g id="Grupo_281">
								<g id="Grupo_280">
									<path id="Trazado_151" class="st2" d="M234.05,360.01l-28.7-76.27c1.71-1.45,1.91-4.01,0.45-5.72
										c-0.78-0.9-1.87-1.42-3.04-1.42l-169.4,73.97c-2.26,0.03-4.04,1.87-4.01,4.14c0.03,1.16,0.55,2.26,1.42,3.04l-28.7,76.3
										c-0.06,0.16-0.06,0.32-0.06,0.48h2.75l28.53-75.78c0.03,0,0.06,0,0.1,0h0.06l28.5,75.78h2.75c0-0.16-0.03-0.32-0.06-0.48
										l-28.34-75.3l163.23-72.61l-28.08,73.94c-0.06,0.16-0.1,0.32-0.06,0.48h2.78l28.5-75.78h0.1h0.1l28.5,75.78h2.75
										C234.12,360.34,234.09,360.17,234.05,360.01z"/>
								</g>
							</g>
						</g>
					</g>
					<g id="Grupo_288" transform="translate(19.275 17.561)">
						<g id="Grupo_285">
							<g id="Grupo_284">
								<path id="Trazado_152" class="st13" d="M92.42,315.76v131.95H50.93c-3.75,0-6.79,3.04-6.79,6.79c0,3.75,3.04,6.79,6.79,6.79
									h48.18V317.51C96.75,317.47,94.46,316.86,92.42,315.76z"/>
							</g>
						</g>
						<g id="Grupo_287" transform="translate(16.988)">
							<g id="Grupo_286">
								<path id="Trazado_153" class="st2" d="M82.12,317.47v143.77h48.18c3.75,0,6.79-3.04,6.79-6.79s-3.04-6.79-6.79-6.79H88.81
									V315.76C86.77,316.86,84.45,317.47,82.12,317.47z"/>
							</g>
						</g>
					</g>
					<g id="Grupo_298" transform="translate(31.739 2.191)">
						<g id="Grupo_290" transform="translate(4.525 6.727)">
							<g id="Grupo_289">
								<path id="Trazado_154" class="st2" d="M95.6,305.55c-0.48-1.13-1.13-2.23-1.91-3.2c-2.71-3.68-7.01-5.85-11.57-5.88l0,0
									v29.63l0,0c2.33-0.03,4.65-0.61,6.69-1.71c4.1-2.17,6.98-6.14,7.69-10.73C97.02,310.92,96.7,308.11,95.6,305.55L95.6,305.55
									z"/>
							</g>
						</g>
						<g id="Grupo_292" transform="translate(0 6.727)">
							<g id="Grupo_291">
								<path id="Trazado_155" class="st13" d="M75.03,302.36c-2,2.55-3.04,5.72-3.01,8.95c0,0.81,0.1,1.58,0.23,2.39
									c0.74,4.59,3.59,8.56,7.69,10.73c2.07,1.1,4.36,1.71,6.69,1.71v-29.67C82.07,296.47,77.78,298.67,75.03,302.36z"/>
							</g>
						</g>
						<g id="Grupo_297" transform="translate(0.934)">
							<g id="Grupo_294" transform="translate(3.591 0.43)">
								<g id="Grupo_293">
									<path id="Trazado_156" class="st2" d="M82.12,302.78c4.56,0.03,8.85,2.2,11.57,5.88c-1.13-2.17-2.78-4.04-4.82-5.36
										l-6.75-20.88V302.78L82.12,302.78z"/>
								</g>
							</g>
							<g id="Grupo_296">
								<g id="Grupo_295">
									<path id="Trazado_157" class="st13" d="M85.71,303.21v-20.36l-0.45-1.39l-7.46,23.07c-1.52,1.26-2.78,2.81-3.68,4.56
										C76.82,305.38,81.12,303.21,85.71,303.21z"/>
								</g>
							</g>
						</g>
					</g>
				</g>
			</g>
		</g>
	</g>
	<g id="Grupo_353" transform="translate(224.14 340.269)">
		<g id="Grupo_304" transform="translate(1.431 26.984)">
			<g id="Grupo_303">
				<path id="Trazado_158" class="st21" d="M407.72,155.68l-0.26,0.45l-13.41,23.53l0.45,0.48l18.32-16.77L407.72,155.68z"/>
			</g>
		</g>
		<g id="Grupo_306" transform="translate(1.302 24.705)">
			<g id="Grupo_305">
				<path id="Trazado_159" class="st22" d="M394.18,181.91l13.41-23.53l-3.39-7.82l-10.47,31.28l0.23-0.19L394.18,181.91z"/>
			</g>
		</g>
		<g id="Grupo_308" transform="translate(4.538 24.705)">
			<g id="Grupo_307">
				<path id="Trazado_160" class="st23" d="M404.63,157.96l-3.65-7.37l3.39,7.82L404.63,157.96z"/>
			</g>
		</g>
		<g id="Grupo_310" transform="translate(1.577 29.365)">
			<g id="Grupo_309">
				<path id="Trazado_161" class="st24" d="M394.37,177.77l0.39,0.42l24.2-11.5l0.61-0.29l-6.88-5.4L394.37,177.77z"/>
			</g>
		</g>
		<g id="Grupo_312" transform="translate(1.567 29.356)">
			<g id="Grupo_311">
				<path id="Trazado_162" class="st23" d="M412.7,161.01l-0.03-0.03l-1.58,1.42l-16.74,15.35l0.03,0.03l16.77-15.35L412.7,161.01z"
					/>
			</g>
		</g>
		<g id="Grupo_314" transform="translate(1.698 31.127)">
			<g id="Grupo_313">
				<path id="Trazado_163" class="st25" d="M394.64,176.43l0.23,0.26l0.13,0.13l31.8-7.53l-7.95-4.36L394.64,176.43z"/>
			</g>
		</g>
		<g id="Grupo_316" transform="translate(9.182 31.037)">
			<g id="Grupo_315">
				<path id="Trazado_164" class="st23" d="M411.34,165.02l7.95,4.36l-7.34-4.65L411.34,165.02z"/>
			</g>
		</g>
		<g id="Grupo_318" transform="translate(19.544 10.38)">
			<g id="Grupo_317">
				<path id="Trazado_165" class="st4" d="M436.54,118.63L436.54,118.63l-2.07,1.87l0,0L436.54,118.63z"/>
			</g>
		</g>
		<g id="Grupo_320" transform="translate(20.181 9.604)">
			<g id="Grupo_319">
				<path id="Trazado_166" class="st26" d="M438.64,116.9L438.64,116.9l-2.75,2.52l0,0L438.64,116.9z"/>
			</g>
		</g>
		<g id="Grupo_322" transform="translate(21.026 6.962)">
			<g id="Grupo_321">
				<path id="Trazado_167" class="st27" d="M447.08,111L447.08,111l-9.31,8.53l0,0L447.08,111z"/>
			</g>
		</g>
		<g id="Grupo_324" transform="translate(4.538 4.039)">
			<g id="Grupo_323">
				<path id="Trazado_168" class="st28" d="M477.47,111.91c-2.81-3.81-4.33-6.75-3.59-7.43l-10.31,9.44l0,0l-9.34,8.56l-2.75,2.52
					l-2.07,1.87l0,0l-48.44,44.4l3.65,7.37L477.47,111.91z"/>
			</g>
		</g>
		<g id="Grupo_326" transform="translate(9.376 10.336)">
			<g id="Grupo_325">
				<path id="Trazado_169" class="st18" d="M484.62,118.69l-72.84,66.73l7.34,4.65l77.36-71.55l-4.78,4.39
					C490.95,123.6,488.2,121.86,484.62,118.69z"/>
			</g>
		</g>
		<g id="Grupo_328" transform="translate(5.666 6.334)">
			<g id="Grupo_327">
				<path id="Trazado_170" class="st15" d="M482.22,116.61l-0.13-0.13c-2.23-2.42-4.17-4.78-5.72-6.88l-72.87,66.73l5.07,7.66
					L482.22,116.61z"/>
			</g>
		</g>
		<g id="Grupo_330" transform="translate(7.237 8.503)">
			<g id="Grupo_329">
				<path id="Trazado_171" class="st28" d="M480.65,114.44L407,181.82l0.03,0.03l6.88,5.4l72.84-66.73
					C484.63,118.61,482.56,116.57,480.65,114.44L480.65,114.44z"/>
			</g>
		</g>
		<g id="Grupo_332" transform="translate(27.044 3.46)">
			<g id="Grupo_331">
				<path id="Trazado_172" class="st4" d="M454.98,112.46c1.55,2.1,3.52,4.46,5.72,6.88l0.13,0.13l2.07-1.87
					c-0.03-0.03-0.06-0.1-0.13-0.13c-1.71-1.87-3.26-3.68-4.59-5.4c-3.55-4.52-5.56-8.14-4.72-8.89l-2.04,1.87
					C450.65,105.74,452.14,108.65,454.98,112.46z"/>
			</g>
		</g>
		<g id="Grupo_334" transform="translate(30.021 7.924)">
			<g id="Grupo_333">
				<path id="Trazado_173" class="st29" d="M463.99,121.1c3.55,3.17,6.33,4.91,7.08,4.23l2.04-1.87c-0.74,0.68-3.49-1.07-7.08-4.23
					c-2.17-1.91-4.2-3.94-6.14-6.08l-2.07,1.87C459.79,117.15,461.82,119.19,463.99,121.1z"/>
			</g>
		</g>
		<g id="Grupo_336" transform="translate(30.021 7.924)">
			<g id="Grupo_335">
				<path id="Trazado_174" class="st30" d="M457.85,115.02L457.85,115.02l2.07-1.87l0,0L457.85,115.02z"/>
			</g>
		</g>
		<g id="Grupo_338" transform="translate(30.658 7.15)">
			<g id="Grupo_337">
				<path id="Trazado_175" class="st31" d="M461.98,111.42l-2.71,2.49c1.94,2.13,3.97,4.17,6.14,6.08c3.55,3.17,6.33,4.91,7.08,4.23
					l2.75-2.52C474.07,122.76,468.22,118.17,461.98,111.42z"/>
			</g>
		</g>
		<g id="Grupo_340" transform="translate(27.678 2.685)">
			<g id="Grupo_339">
				<path id="Trazado_176" class="st26" d="M457.53,112.86c1.36,1.71,2.91,3.52,4.59,5.4c0.03,0.03,0.06,0.1,0.13,0.13l0,0
					l2.71-2.49l-0.13-0.13c-6.27-6.82-10.47-13.25-9.34-14.28l-2.75,2.49C451.97,104.72,453.98,108.31,457.53,112.86z"/>
			</g>
		</g>
		<g id="Grupo_342" transform="translate(28.523 0.044)">
			<g id="Grupo_341">
				<path id="Trazado_177" class="st32" d="M464.01,118.38l0.13,0.13l9.31-8.53l-0.1-0.13c-6.27-6.82-10.47-13.25-9.34-14.28
					l-9.31,8.53C453.57,105.13,457.77,111.56,464.01,118.38z"/>
			</g>
		</g>
		<g id="Grupo_344" transform="translate(31.501 4.508)">
			<g id="Grupo_343">
				<path id="Trazado_178" class="st33" d="M470.46,105.52l-9.31,8.53c6.2,6.75,12.09,11.34,13.22,10.31l9.31-8.53
					C482.54,116.87,476.66,112.28,470.46,105.52z"/>
			</g>
		</g>
		<g id="Grupo_346" transform="translate(31.406)">
			<g id="Grupo_345">
				<path id="Trazado_179" class="st34" d="M470.47,109.91l0.1,0.13l4.1-3.78c-0.03-0.03-0.1-0.06-0.13-0.13
					c-6.24-6.82-12.28-11.57-13.41-10.53S464.2,103.06,470.47,109.91z"/>
			</g>
		</g>
		<g id="Grupo_348" transform="translate(34.385 3.343)">
			<g id="Grupo_347">
				<path id="Trazado_180" class="st27" d="M471.69,102.92l-4.1,3.78c6.2,6.75,12.09,11.34,13.22,10.28
					C481.93,115.91,477.86,109.71,471.69,102.92z"/>
			</g>
		</g>
		<g id="Grupo_350" transform="translate(0 34.329)">
			<g id="Grupo_349">
				<path id="Trazado_181" class="st15" d="M396.57,173.49l-0.23-0.23l-0.39-0.42l0,0l-0.03-0.03l0,0l-0.45-0.48l-0.19-0.23
					l-0.23,0.19l-3.59,3.3c-0.78,0.71-0.81,1.91-0.1,2.68L396.57,173.49z"/>
			</g>
		</g>
		<g id="Grupo_352" transform="translate(0.154 34.765)">
			<g id="Grupo_351">
				<path id="Trazado_182" class="st35" d="M391.2,177.79L391.2,177.79c0.68,0.78,1.87,0.84,2.65,0.16c0,0,0,0,0.03-0.03l3.81-3.49
					l-1.16-1.26l-0.13-0.13L391.2,177.79z"/>
			</g>
		</g>
	</g>
</g>
</svg>
